Round Sans.ufo
<glyph name="nine" format="1">
  <advance width="560"/>
  <unicode hex="0039"/>
  <outline>
    <contour>
      <point x="425.0" y="460.0"/>
      <point x="438.0" y="473.0"/>
      <point x="455.0" y="473.0" type="curve" smooth="yes"/>
      <point x="470.0" y="473.0"/>
      <point x="484.0" y="460.0"/>
      <point x="484.0" y="444.0" type="curve" smooth="yes"/>
      <point x="484.0" y="428.0"/>
      <point x="470.0" y="415.0"/>
      <point x="455.0" y="415.0" type="curve" smooth="yes"/>
      <point x="438.0" y="415.0"/>
      <point x="425.0" y="428.0"/>
      <point x="425.0" y="444.0" type="curve" smooth="yes"/>
    </contour>
    <contour>
      <point x="5.0" y="460.0"/>
      <point x="19.0" y="473.0"/>
      <point x="35.0" y="473.0" type="curve" smooth="yes"/>
      <point x="52.0" y="473.0"/>
      <point x="64.0" y="460.0"/>
      <point x="64.0" y="444.0" type="curve" smooth="yes"/>
      <point x="64.0" y="428.0"/>
      <point x="52.0" y="415.0"/>
      <point x="35.0" y="415.0" type="curve" smooth="yes"/>
      <point x="19.0" y="415.0"/>
      <point x="5.0" y="428.0"/>
      <point x="5.0" y="444.0" type="curve" smooth="yes"/>
    </contour>
    <contour>
      <point x="285.0" y="391.0"/>
      <point x="298.0" y="404.0"/>
      <point x="315.0" y="404.0" type="curve" smooth="yes"/>
      <point x="330.0" y="404.0"/>
      <point x="344.0" y="391.0"/>
      <point x="344.0" y="375.0" type="curve" smooth="yes"/>
      <point x="344.0" y="358.0"/>
      <point x="330.0" y="346.0"/>
      <point x="315.0" y="346.0" type="curve" smooth="yes"/>
      <point x="298.0" y="346.0"/>
      <point x="285.0" y="358.0"/>
      <point x="285.0" y="375.0" type="curve" smooth="yes"/>
    </contour>
    <contour>
      <point x="145.0" y="46.0"/>
      <point x="159.0" y="59.0"/>
      <point x="175.0" y="59.0" type="curve" smooth="yes"/>
      <point x="191.0" y="59.0"/>
      <point x="204.0" y="46.0"/>
      <point x="204.0" y="29.0" type="curve" smooth="yes"/>
      <point x="204.0" y="14.0"/>
      <point x="191.0" y="0.0"/>
      <point x="175.0" y="0.0" type="curve" smooth="yes"/>
      <point x="159.0" y="0.0"/>
      <point x="145.0" y="14.0"/>
      <point x="145.0" y="29.0" type="curve" smooth="yes"/>
    </contour>
    <contour>
      <point x="75.0" y="667.0"/>
      <point x="89.0" y="681.0"/>
      <point x="105.0" y="681.0" type="curve" smooth="yes"/>
      <point x="122.0" y="681.0"/>
      <point x="134.0" y="667.0"/>
      <point x="134.0" y="652.0" type="curve" smooth="yes"/>
      <point x="134.0" y="635.0"/>
      <point x="122.0" y="622.0"/>
      <point x="105.0" y="622.0" type="curve" smooth="yes"/>
      <point x="89.0" y="622.0"/>
      <point x="75.0" y="635.0"/>
      <point x="75.0" y="652.0" type="curve" smooth="yes"/>
    </contour>
    <contour>
      <point x="355.0" y="115.0"/>
      <point x="368.0" y="128.0"/>
      <point x="385.0" y="128.0" type="curve" smooth="yes"/>
      <point x="400.0" y="128.0"/>
      <point x="414.0" y="115.0"/>
      <point x="414.0" y="99.0" type="curve" smooth="yes"/>
      <point x="414.0" y="83.0"/>
      <point x="400.0" y="69.0"/>
      <point x="385.0" y="69.0" type="curve" smooth="yes"/>
      <point x="368.0" y="69.0"/>
      <point x="355.0" y="83.0"/>
      <point x="355.0" y="99.0" type="curve" smooth="yes"/>
    </contour>
    <contour>
      <point x="425.0" y="184.0"/>
      <point x="438.0" y="197.0"/>
      <point x="455.0" y="197.0" type="curve" smooth="yes"/>
      <point x="470.0" y="197.0"/>
      <point x="484.0" y="184.0"/>
      <point x="484.0" y="168.0" type="curve" smooth="yes"/>
      <point x="484.0" y="152.0"/>
      <point x="470.0" y="139.0"/>
      <point x="455.0" y="139.0" type="curve" smooth="yes"/>
      <point x="438.0" y="139.0"/>
      <point x="425.0" y="152.0"/>
      <point x="425.0" y="168.0" type="curve" smooth="yes"/>
    </contour>
    <contour>
      <point x="215.0" y="391.0"/>
      <point x="228.0" y="404.0"/>
      <point x="245.0" y="404.0" type="curve" smooth="yes"/>
      <point x="261.0" y="404.0"/>
      <point x="274.0" y="391.0"/>
      <point x="274.0" y="375.0" type="curve" smooth="yes"/>
      <point x="274.0" y="358.0"/>
      <point x="261.0" y="346.0"/>
      <point x="245.0" y="346.0" type="curve" smooth="yes"/>
      <point x="228.0" y="346.0"/>
      <point x="215.0" y="358.0"/>
      <point x="215.0" y="375.0" type="curve" smooth="yes"/>
    </contour>
    <contour>
      <point x="5.0" y="598.0"/>
      <point x="19.0" y="612.0"/>
      <point x="35.0" y="612.0" type="curve" smooth="yes"/>
      <point x="52.0" y="612.0"/>
      <point x="64.0" y="598.0"/>
      <point x="64.0" y="582.0" type="curve" smooth="yes"/>
      <point x="64.0" y="566.0"/>
      <point x="52.0" y="553.0"/>
      <point x="35.0" y="553.0" type="curve" smooth="yes"/>
      <point x="19.0" y="553.0"/>
      <point x="5.0" y="566.0"/>
      <point x="5.0" y="582.0" type="curve" smooth="yes"/>
    </contour>
    <contour>
      <point x="145.0" y="736.0"/>
      <point x="159.0" y="750.0"/>
      <point x="175.0" y="750.0" type="curve" smooth="yes"/>
      <point x="191.0" y="750.0"/>
      <point x="204.0" y="736.0"/>
      <point x="204.0" y="721.0" type="curve" smooth="yes"/>
      <point x="204.0" y="704.0"/>
      <point x="191.0" y="692.0"/>
      <point x="175.0" y="692.0" type="curve" smooth="yes"/>
      <point x="159.0" y="692.0"/>
      <point x="145.0" y="704.0"/>
      <point x="145.0" y="721.0" type="curve" smooth="yes"/>
    </contour>
    <contour>
      <point x="5.0" y="529.0"/>
      <point x="19.0" y="542.0"/>
      <point x="35.0" y="542.0" type="curve" smooth="yes"/>
      <point x="52.0" y="542.0"/>
      <point x="64.0" y="529.0"/>
      <point x="64.0" y="513.0" type="curve" smooth="yes"/>
      <point x="64.0" y="497.0"/>
      <point x="52.0" y="484.0"/>
      <point x="35.0" y="484.0" type="curve" smooth="yes"/>
      <point x="19.0" y="484.0"/>
      <point x="5.0" y="497.0"/>
      <point x="5.0" y="513.0" type="curve" smooth="yes"/>
    </contour>
    <contour>
      <point x="425.0" y="667.0"/>
      <point x="438.0" y="681.0"/>
      <point x="455.0" y="681.0" type="curve" smooth="yes"/>
      <point x="470.0" y="681.0"/>
      <point x="484.0" y="667.0"/>
      <point x="484.0" y="652.0" type="curve" smooth="yes"/>
      <point x="484.0" y="635.0"/>
      <point x="470.0" y="622.0"/>
      <point x="455.0" y="622.0" type="curve" smooth="yes"/>
      <point x="438.0" y="622.0"/>
      <point x="425.0" y="635.0"/>
      <point x="425.0" y="652.0" type="curve" smooth="yes"/>
    </contour>
    <contour>
      <point x="215.0" y="736.0"/>
      <point x="228.0" y="750.0"/>
      <point x="245.0" y="750.0" type="curve" smooth="yes"/>
      <point x="261.0" y="750.0"/>
      <point x="274.0" y="736.0"/>
      <point x="274.0" y="721.0" type="curve" smooth="yes"/>
      <point x="274.0" y="704.0"/>
      <point x="261.0" y="692.0"/>
      <point x="245.0" y="692.0" type="curve" smooth="yes"/>
      <point x="228.0" y="692.0"/>
      <point x="215.0" y="704.0"/>
      <point x="215.0" y="721.0" type="curve" smooth="yes"/>
    </contour>
    <contour>
      <point x="425.0" y="598.0"/>
      <point x="438.0" y="612.0"/>
      <point x="455.0" y="612.0" type="curve" smooth="yes"/>
      <point x="470.0" y="612.0"/>
      <point x="484.0" y="598.0"/>
      <point x="484.0" y="582.0" type="curve" smooth="yes"/>
      <point x="484.0" y="566.0"/>
      <point x="470.0" y="553.0"/>
      <point x="455.0" y="553.0" type="curve" smooth="yes"/>
      <point x="438.0" y="553.0"/>
      <point x="425.0" y="566.0"/>
      <point x="425.0" y="582.0" type="curve" smooth="yes"/>
    </contour>
    <contour>
      <point x="285.0" y="46.0"/>
      <point x="298.0" y="59.0"/>
      <point x="315.0" y="59.0" type="curve" smooth="yes"/>
      <point x="330.0" y="59.0"/>
      <point x="344.0" y="46.0"/>
      <point x="344.0" y="29.0" type="curve" smooth="yes"/>
      <point x="344.0" y="14.0"/>
      <point x="330.0" y="0.0"/>
      <point x="315.0" y="0.0" type="curve" smooth="yes"/>
      <point x="298.0" y="0.0"/>
      <point x="285.0" y="14.0"/>
      <point x="285.0" y="29.0" type="curve" smooth="yes"/>
    </contour>
    <contour>
      <point x="425.0" y="391.0"/>
      <point x="438.0" y="404.0"/>
      <point x="455.0" y="404.0" type="curve" smooth="yes"/>
      <point x="470.0" y="404.0"/>
      <point x="484.0" y="391.0"/>
      <point x="484.0" y="375.0" type="curve" smooth="yes"/>
      <point x="484.0" y="358.0"/>
      <point x="470.0" y="346.0"/>
      <point x="455.0" y="346.0" type="curve" smooth="yes"/>
      <point x="438.0" y="346.0"/>
      <point x="425.0" y="358.0"/>
      <point x="425.0" y="375.0" type="curve" smooth="yes"/>
    </contour>
    <contour>
      <point x="355.0" y="736.0"/>
      <point x="368.0" y="750.0"/>
      <point x="385.0" y="750.0" type="curve" smooth="yes"/>
      <point x="400.0" y="750.0"/>
      <point x="414.0" y="736.0"/>
      <point x="414.0" y="721.0" type="curve" smooth="yes"/>
      <point x="414.0" y="704.0"/>
      <point x="400.0" y="692.0"/>
      <point x="385.0" y="692.0" type="curve" smooth="yes"/>
      <point x="368.0" y="692.0"/>
      <point x="355.0" y="704.0"/>
      <point x="355.0" y="721.0" type="curve" smooth="yes"/>
    </contour>
    <contour>
      <point x="425.0" y="529.0"/>
      <point x="438.0" y="542.0"/>
      <point x="455.0" y="542.0" type="curve" smooth="yes"/>
      <point x="470.0" y="542.0"/>
      <point x="484.0" y="529.0"/>
      <point x="484.0" y="513.0" type="curve" smooth="yes"/>
      <point x="484.0" y="497.0"/>
      <point x="470.0" y="484.0"/>
      <point x="455.0" y="484.0" type="curve" smooth="yes"/>
      <point x="438.0" y="484.0"/>
      <point x="425.0" y="497.0"/>
      <point x="425.0" y="513.0" type="curve" smooth="yes"/>
    </contour>
    <contour>
      <point x="215.0" y="46.0"/>
      <point x="228.0" y="59.0"/>
      <point x="245.0" y="59.0" type="curve" smooth="yes"/>
      <point x="261.0" y="59.0"/>
      <point x="274.0" y="46.0"/>
      <point x="274.0" y="29.0" type="curve" smooth="yes"/>
      <point x="274.0" y="14.0"/>
      <point x="261.0" y="0.0"/>
      <point x="245.0" y="0.0" type="curve" smooth="yes"/>
      <point x="228.0" y="0.0"/>
      <point x="215.0" y="14.0"/>
      <point x="215.0" y="29.0" type="curve" smooth="yes"/>
    </contour>
    <contour>
      <point x="425.0" y="253.0"/>
      <point x="438.0" y="266.0"/>
      <point x="455.0" y="266.0" type="curve" smooth="yes"/>
      <point x="470.0" y="266.0"/>
      <point x="484.0" y="253.0"/>
      <point x="484.0" y="237.0" type="curve" smooth="yes"/>
      <point x="484.0" y="221.0"/>
      <point x="470.0" y="208.0"/>
      <point x="455.0" y="208.0" type="curve" smooth="yes"/>
      <point x="438.0" y="208.0"/>
      <point x="425.0" y="221.0"/>
      <point x="425.0" y="237.0" type="curve" smooth="yes"/>
    </contour>
    <contour>
      <point x="425.0" y="323.0"/>
      <point x="438.0" y="335.0"/>
      <point x="455.0" y="335.0" type="curve" smooth="yes"/>
      <point x="470.0" y="335.0"/>
      <point x="484.0" y="323.0"/>
      <point x="484.0" y="306.0" type="curve" smooth="yes"/>
      <point x="484.0" y="289.0"/>
      <point x="470.0" y="277.0"/>
      <point x="455.0" y="277.0" type="curve" smooth="yes"/>
      <point x="438.0" y="277.0"/>
      <point x="425.0" y="289.0"/>
      <point x="425.0" y="306.0" type="curve" smooth="yes"/>
    </contour>
    <contour>
      <point x="285.0" y="736.0"/>
      <point x="298.0" y="750.0"/>
      <point x="315.0" y="750.0" type="curve" smooth="yes"/>
      <point x="330.0" y="750.0"/>
      <point x="344.0" y="736.0"/>
      <point x="344.0" y="721.0" type="curve" smooth="yes"/>
      <point x="344.0" y="704.0"/>
      <point x="330.0" y="692.0"/>
      <point x="315.0" y="692.0" type="curve" smooth="yes"/>
      <point x="298.0" y="692.0"/>
      <point x="285.0" y="704.0"/>
      <point x="285.0" y="721.0" type="curve" smooth="yes"/>
    </contour>
    <contour>
      <point x="355.0" y="391.0"/>
      <point x="368.0" y="404.0"/>
      <point x="385.0" y="404.0" type="curve" smooth="yes"/>
      <point x="400.0" y="404.0"/>
      <point x="414.0" y="391.0"/>
      <point x="414.0" y="375.0" type="curve" smooth="yes"/>
      <point x="414.0" y="358.0"/>
      <point x="400.0" y="346.0"/>
      <point x="385.0" y="346.0" type="curve" smooth="yes"/>
      <point x="368.0" y="346.0"/>
      <point x="355.0" y="358.0"/>
      <point x="355.0" y="375.0" type="curve" smooth="yes"/>
    </contour>
    <contour>
      <point x="145.0" y="391.0"/>
      <point x="159.0" y="404.0"/>
      <point x="175.0" y="404.0" type="curve" smooth="yes"/>
      <point x="191.0" y="404.0"/>
      <point x="204.0" y="391.0"/>
      <point x="204.0" y="375.0" type="curve" smooth="yes"/>
      <point x="204.0" y="358.0"/>
      <point x="191.0" y="346.0"/>
      <point x="175.0" y="346.0" type="curve" smooth="yes"/>
      <point x="159.0" y="346.0"/>
      <point x="145.0" y="358.0"/>
      <point x="145.0" y="375.0" type="curve" smooth="yes"/>
    </contour>
    <contour>
      <point x="75.0" y="46.0"/>
      <point x="89.0" y="59.0"/>
      <point x="105.0" y="59.0" type="curve" smooth="yes"/>
      <point x="122.0" y="59.0"/>
      <point x="134.0" y="46.0"/>
      <point x="134.0" y="29.0" type="curve" smooth="yes"/>
      <point x="134.0" y="14.0"/>
      <point x="122.0" y="0.0"/>
      <point x="105.0" y="0.0" type="curve" smooth="yes"/>
      <point x="89.0" y="0.0"/>
      <point x="75.0" y="14.0"/>
      <point x="75.0" y="29.0" type="curve" smooth="yes"/>
    </contour>
    <contour>
      <point x="75.0" y="391.0"/>
      <point x="89.0" y="404.0"/>
      <point x="105.0" y="404.0" type="curve" smooth="yes"/>
      <point x="122.0" y="404.0"/>
      <point x="134.0" y="391.0"/>
      <point x="134.0" y="375.0" type="curve" smooth="yes"/>
      <point x="134.0" y="358.0"/>
      <point x="122.0" y="346.0"/>
      <point x="105.0" y="346.0" type="curve" smooth="yes"/>
      <point x="89.0" y="346.0"/>
      <point x="75.0" y="358.0"/>
      <point x="75.0" y="375.0" type="curve" smooth="yes"/>
    </contour>
  </outline>
</glyph>
<glyph name="semicolon" format="1">
  <advance width="560"/>
  <unicode hex="003B"/>
  <outline>
    <contour>
      <point x="204.0" y="513.0" type="curve" smooth="yes"/>
      <point x="204.0" y="497.0"/>
      <point x="191.0" y="484.0"/>
      <point x="174.0" y="484.0" type="curve" smooth="yes"/>
      <point x="159.0" y="484.0"/>
      <point x="145.0" y="497.0"/>
      <point x="145.0" y="513.0" type="curve" smooth="yes"/>
      <point x="145.0" y="529.0"/>
      <point x="159.0" y="542.0"/>
      <point x="174.0" y="542.0" type="curve" smooth="yes"/>
      <point x="191.0" y="542.0"/>
      <point x="204.0" y="529.0"/>
    </contour>
    <contour>
      <point x="274.0" y="168.0" type="curve" smooth="yes"/>
      <point x="274.0" y="152.0"/>
      <point x="261.0" y="138.0"/>
      <point x="244.0" y="138.0" type="curve" smooth="yes"/>
      <point x="228.0" y="138.0"/>
      <point x="215.0" y="152.0"/>
      <point x="215.0" y="168.0" type="curve" smooth="yes"/>
      <point x="215.0" y="184.0"/>
      <point x="228.0" y="197.0"/>
      <point x="244.0" y="197.0" type="curve" smooth="yes"/>
      <point x="261.0" y="197.0"/>
      <point x="274.0" y="184.0"/>
    </contour>
    <contour>
      <point x="204.0" y="168.0" type="curve" smooth="yes"/>
      <point x="204.0" y="152.0"/>
      <point x="191.0" y="138.0"/>
      <point x="174.0" y="138.0" type="curve" smooth="yes"/>
      <point x="159.0" y="138.0"/>
      <point x="145.0" y="152.0"/>
      <point x="145.0" y="168.0" type="curve" smooth="yes"/>
      <point x="145.0" y="184.0"/>
      <point x="159.0" y="197.0"/>
      <point x="174.0" y="197.0" type="curve" smooth="yes"/>
      <point x="191.0" y="197.0"/>
      <point x="204.0" y="184.0"/>
    </contour>
    <contour>
      <point x="204.0" y="444.0" type="curve" smooth="yes"/>
      <point x="204.0" y="427.0"/>
      <point x="191.0" y="415.0"/>
      <point x="174.0" y="415.0" type="curve" smooth="yes"/>
      <point x="159.0" y="415.0"/>
      <point x="145.0" y="427.0"/>
      <point x="145.0" y="444.0" type="curve" smooth="yes"/>
      <point x="145.0" y="461.0"/>
      <point x="159.0" y="473.0"/>
      <point x="174.0" y="473.0" type="curve" smooth="yes"/>
      <point x="191.0" y="473.0"/>
      <point x="204.0" y="461.0"/>
    </contour>
    <contour>
      <point x="204.0" y="29.0" type="curve" smooth="yes"/>
      <point x="204.0" y="14.0"/>
      <point x="191.0" y="0.0"/>
      <point x="174.0" y="0.0" type="curve" smooth="yes"/>
      <point x="159.0" y="0.0"/>
      <point x="145.0" y="14.0"/>
      <point x="145.0" y="29.0" type="curve" smooth="yes"/>
      <point x="145.0" y="46.0"/>
      <point x="159.0" y="58.0"/>
      <point x="174.0" y="58.0" type="curve" smooth="yes"/>
      <point x="191.0" y="58.0"/>
      <point x="204.0" y="46.0"/>
    </contour>
    <contour>
      <point x="274.0" y="513.0" type="curve" smooth="yes"/>
      <point x="274.0" y="497.0"/>
      <point x="261.0" y="484.0"/>
      <point x="244.0" y="484.0" type="curve" smooth="yes"/>
      <point x="228.0" y="484.0"/>
      <point x="215.0" y="497.0"/>
      <point x="215.0" y="513.0" type="curve" smooth="yes"/>
      <point x="215.0" y="529.0"/>
      <point x="228.0" y="542.0"/>
      <point x="244.0" y="542.0" type="curve" smooth="yes"/>
      <point x="261.0" y="542.0"/>
      <point x="274.0" y="529.0"/>
    </contour>
    <contour>
      <point x="274.0" y="582.0" type="curve" smooth="yes"/>
      <point x="274.0" y="566.0"/>
      <point x="261.0" y="553.0"/>
      <point x="244.0" y="553.0" type="curve" smooth="yes"/>
      <point x="228.0" y="553.0"/>
      <point x="215.0" y="566.0"/>
      <point x="215.0" y="582.0" type="curve" smooth="yes"/>
      <point x="215.0" y="598.0"/>
      <point x="228.0" y="611.0"/>
      <point x="244.0" y="611.0" type="curve" smooth="yes"/>
      <point x="261.0" y="611.0"/>
      <point x="274.0" y="598.0"/>
    </contour>
    <contour>
      <point x="274.0" y="98.0" type="curve" smooth="yes"/>
      <point x="274.0" y="83.0"/>
      <point x="261.0" y="69.0"/>
      <point x="244.0" y="69.0" type="curve" smooth="yes"/>
      <point x="228.0" y="69.0"/>
      <point x="215.0" y="83.0"/>
      <point x="215.0" y="98.0" type="curve" smooth="yes"/>
      <point x="215.0" y="115.0"/>
      <point x="228.0" y="128.0"/>
      <point x="244.0" y="128.0" type="curve" smooth="yes"/>
      <point x="261.0" y="128.0"/>
      <point x="274.0" y="115.0"/>
    </contour>
    <contour>
      <point x="274.0" y="444.0" type="curve" smooth="yes"/>
      <point x="274.0" y="427.0"/>
      <point x="261.0" y="415.0"/>
      <point x="244.0" y="415.0" type="curve" smooth="yes"/>
      <point x="228.0" y="415.0"/>
      <point x="215.0" y="427.0"/>
      <point x="215.0" y="444.0" type="curve" smooth="yes"/>
      <point x="215.0" y="461.0"/>
      <point x="228.0" y="473.0"/>
      <point x="244.0" y="473.0" type="curve" smooth="yes"/>
      <point x="261.0" y="473.0"/>
      <point x="274.0" y="461.0"/>
    </contour>
    <contour>
      <point x="204.0" y="582.0" type="curve" smooth="yes"/>
      <point x="204.0" y="566.0"/>
      <point x="191.0" y="553.0"/>
      <point x="174.0" y="553.0" type="curve" smooth="yes"/>
      <point x="159.0" y="553.0"/>
      <point x="145.0" y="566.0"/>
      <point x="145.0" y="582.0" type="curve" smooth="yes"/>
      <point x="145.0" y="598.0"/>
      <point x="159.0" y="611.0"/>
      <point x="174.0" y="611.0" type="curve" smooth="yes"/>
      <point x="191.0" y="611.0"/>
      <point x="204.0" y="598.0"/>
    </contour>
  </outline>
</glyph>
<glyph name="J" format="1">
  <advance width="560"/>
  <unicode hex="004A"/>
  <outline>
    <contour>
      <point x="64" y="83"/>
      <point x="50" y="69"/>
      <point x="34" y="69" type="curve" smooth="yes"/>
      <point x="17" y="69"/>
      <point x="5" y="83"/>
      <point x="5" y="98" type="curve" smooth="yes"/>
      <point x="5" y="115"/>
      <point x="17" y="128"/>
      <point x="34" y="128" type="curve" smooth="yes"/>
      <point x="50" y="128"/>
      <point x="64" y="115"/>
      <point x="64" y="98" type="curve" smooth="yes"/>
    </contour>
    <contour>
      <point x="134" y="14"/>
      <point x="120" y="0"/>
      <point x="104" y="0" type="curve" smooth="yes"/>
      <point x="87" y="0"/>
      <point x="75" y="14"/>
      <point x="75" y="29" type="curve" smooth="yes"/>
      <point x="75" y="46"/>
      <point x="87" y="58"/>
      <point x="104" y="58" type="curve" smooth="yes"/>
      <point x="120" y="58"/>
      <point x="134" y="46"/>
      <point x="134" y="29" type="curve" smooth="yes"/>
    </contour>
    <contour>
      <point x="484.0" y="168.0" type="curve" smooth="yes"/>
      <point x="484.0" y="152.0"/>
      <point x="470.0" y="138.0"/>
      <point x="454.0" y="138.0" type="curve" smooth="yes"/>
      <point x="437.0" y="138.0"/>
      <point x="425.0" y="152.0"/>
      <point x="425.0" y="168.0" type="curve" smooth="yes"/>
      <point x="425.0" y="184.0"/>
      <point x="437.0" y="197.0"/>
      <point x="454.0" y="197.0" type="curve" smooth="yes"/>
      <point x="470.0" y="197.0"/>
      <point x="484.0" y="184.0"/>
    </contour>
    <contour>
      <point x="64.0" y="168.0" type="curve" smooth="yes"/>
      <point x="64.0" y="152.0"/>
      <point x="51.0" y="138.0"/>
      <point x="34.0" y="138.0" type="curve" smooth="yes"/>
      <point x="19.0" y="138.0"/>
      <point x="5.0" y="152.0"/>
      <point x="5.0" y="168.0" type="curve" smooth="yes"/>
      <point x="5.0" y="184.0"/>
      <point x="19.0" y="197.0"/>
      <point x="34.0" y="197.0" type="curve" smooth="yes"/>
      <point x="51.0" y="197.0"/>
      <point x="64.0" y="184.0"/>
    </contour>
    <contour>
      <point x="484.0" y="237.0" type="curve" smooth="yes"/>
      <point x="484.0" y="221.0"/>
      <point x="470.0" y="208.0"/>
      <point x="454.0" y="208.0" type="curve" smooth="yes"/>
      <point x="437.0" y="208.0"/>
      <point x="425.0" y="221.0"/>
      <point x="425.0" y="237.0" type="curve" smooth="yes"/>
      <point x="425.0" y="253.0"/>
      <point x="437.0" y="266.0"/>
      <point x="454.0" y="266.0" type="curve" smooth="yes"/>
      <point x="470.0" y="266.0"/>
      <point x="484.0" y="253.0"/>
    </contour>
    <contour>
      <point x="484.0" y="375.0" type="curve" smooth="yes"/>
      <point x="484.0" y="359.0"/>
      <point x="470.0" y="346.0"/>
      <point x="454.0" y="346.0" type="curve" smooth="yes"/>
      <point x="437.0" y="346.0"/>
      <point x="425.0" y="359.0"/>
      <point x="425.0" y="375.0" type="curve" smooth="yes"/>
      <point x="425.0" y="392.0"/>
      <point x="437.0" y="404.0"/>
      <point x="454.0" y="404.0" type="curve" smooth="yes"/>
      <point x="470.0" y="404.0"/>
      <point x="484.0" y="392.0"/>
    </contour>
    <contour>
      <point x="204.0" y="29.0" type="curve" smooth="yes"/>
      <point x="204.0" y="14.0"/>
      <point x="191.0" y="0.0"/>
      <point x="174.0" y="0.0" type="curve" smooth="yes"/>
      <point x="159.0" y="0.0"/>
      <point x="145.0" y="14.0"/>
      <point x="145.0" y="29.0" type="curve" smooth="yes"/>
      <point x="145.0" y="46.0"/>
      <point x="159.0" y="58.0"/>
      <point x="174.0" y="58.0" type="curve" smooth="yes"/>
      <point x="191.0" y="58.0"/>
      <point x="204.0" y="46.0"/>
    </contour>
    <contour>
      <point x="414" y="98" type="curve" smooth="yes"/>
      <point x="414" y="83"/>
      <point x="400" y="69"/>
      <point x="384" y="69" type="curve" smooth="yes"/>
      <point x="367" y="69"/>
      <point x="355" y="83"/>
      <point x="355" y="98" type="curve" smooth="yes"/>
      <point x="355" y="115"/>
      <point x="367" y="127"/>
      <point x="384" y="127" type="curve" smooth="yes"/>
      <point x="400" y="127"/>
      <point x="414" y="115"/>
    </contour>
    <contour>
      <point x="484.0" y="582.0" type="curve" smooth="yes"/>
      <point x="484.0" y="566.0"/>
      <point x="470.0" y="553.0"/>
      <point x="454.0" y="553.0" type="curve" smooth="yes"/>
      <point x="437.0" y="553.0"/>
      <point x="425.0" y="566.0"/>
      <point x="425.0" y="582.0" type="curve" smooth="yes"/>
      <point x="425.0" y="598.0"/>
      <point x="437.0" y="611.0"/>
      <point x="454.0" y="611.0" type="curve" smooth="yes"/>
      <point x="470.0" y="611.0"/>
      <point x="484.0" y="598.0"/>
    </contour>
    <contour>
      <point x="344.0" y="29.0" type="curve" smooth="yes"/>
      <point x="344.0" y="14.0"/>
      <point x="330.0" y="0.0"/>
      <point x="314.0" y="0.0" type="curve" smooth="yes"/>
      <point x="298.0" y="0.0"/>
      <point x="285.0" y="14.0"/>
      <point x="285.0" y="29.0" type="curve" smooth="yes"/>
      <point x="285.0" y="46.0"/>
      <point x="298.0" y="58.0"/>
      <point x="314.0" y="58.0" type="curve" smooth="yes"/>
      <point x="330.0" y="58.0"/>
      <point x="344.0" y="46.0"/>
    </contour>
    <contour>
      <point x="274.0" y="29.0" type="curve" smooth="yes"/>
      <point x="274.0" y="14.0"/>
      <point x="261.0" y="0.0"/>
      <point x="244.0" y="0.0" type="curve" smooth="yes"/>
      <point x="228.0" y="0.0"/>
      <point x="215.0" y="14.0"/>
      <point x="215.0" y="29.0" type="curve" smooth="yes"/>
      <point x="215.0" y="46.0"/>
      <point x="228.0" y="58.0"/>
      <point x="244.0" y="58.0" type="curve" smooth="yes"/>
      <point x="261.0" y="58.0"/>
      <point x="274.0" y="46.0"/>
    </contour>
    <contour>
      <point x="484.0" y="306.0" type="curve" smooth="yes"/>
      <point x="484.0" y="290.0"/>
      <point x="470.0" y="277.0"/>
      <point x="454.0" y="277.0" type="curve" smooth="yes"/>
      <point x="437.0" y="277.0"/>
      <point x="425.0" y="290.0"/>
      <point x="425.0" y="306.0" type="curve" smooth="yes"/>
      <point x="425.0" y="322.0"/>
      <point x="437.0" y="335.0"/>
      <point x="454.0" y="335.0" type="curve" smooth="yes"/>
      <point x="470.0" y="335.0"/>
      <point x="484.0" y="322.0"/>
    </contour>
    <contour>
      <point x="484.0" y="651.0" type="curve" smooth="yes"/>
      <point x="484.0" y="635.0"/>
      <point x="470.0" y="622.0"/>
      <point x="454.0" y="622.0" type="curve" smooth="yes"/>
      <point x="437.0" y="622.0"/>
      <point x="425.0" y="635.0"/>
      <point x="425.0" y="651.0" type="curve" smooth="yes"/>
      <point x="425.0" y="667.0"/>
      <point x="437.0" y="681.0"/>
      <point x="454.0" y="681.0" type="curve" smooth="yes"/>
      <point x="470.0" y="681.0"/>
      <point x="484.0" y="667.0"/>
    </contour>
    <contour>
      <point x="484.0" y="444.0" type="curve" smooth="yes"/>
      <point x="484.0" y="427.0"/>
      <point x="470.0" y="415.0"/>
      <point x="454.0" y="415.0" type="curve" smooth="yes"/>
      <point x="437.0" y="415.0"/>
      <point x="425.0" y="427.0"/>
      <point x="425.0" y="444.0" type="curve" smooth="yes"/>
      <point x="425.0" y="461.0"/>
      <point x="437.0" y="473.0"/>
      <point x="454.0" y="473.0" type="curve" smooth="yes"/>
      <point x="470.0" y="473.0"/>
      <point x="484.0" y="461.0"/>
    </contour>
    <contour>
      <point x="484.0" y="513.0" type="curve" smooth="yes"/>
      <point x="484.0" y="497.0"/>
      <point x="470.0" y="484.0"/>
      <point x="454.0" y="484.0" type="curve" smooth="yes"/>
      <point x="437.0" y="484.0"/>
      <point x="425.0" y="497.0"/>
      <point x="425.0" y="513.0" type="curve" smooth="yes"/>
      <point x="425.0" y="529.0"/>
      <point x="437.0" y="542.0"/>
      <point x="454.0" y="542.0" type="curve" smooth="yes"/>
      <point x="470.0" y="542.0"/>
      <point x="484.0" y="529.0"/>
    </contour>
    <contour>
      <point x="64.0" y="237.0" type="curve" smooth="yes"/>
      <point x="64.0" y="221.0"/>
      <point x="51.0" y="208.0"/>
      <point x="34.0" y="208.0" type="curve" smooth="yes"/>
      <point x="19.0" y="208.0"/>
      <point x="5.0" y="221.0"/>
      <point x="5.0" y="237.0" type="curve" smooth="yes"/>
      <point x="5.0" y="253.0"/>
      <point x="19.0" y="266.0"/>
      <point x="34.0" y="266.0" type="curve" smooth="yes"/>
      <point x="51.0" y="266.0"/>
      <point x="64.0" y="253.0"/>
    </contour>
    <contour>
      <point x="484.0" y="721.0" type="curve" smooth="yes"/>
      <point x="484.0" y="704.0"/>
      <point x="470.0" y="691.0"/>
      <point x="454.0" y="691.0" type="curve" smooth="yes"/>
      <point x="437.0" y="691.0"/>
      <point x="425.0" y="704.0"/>
      <point x="425.0" y="721.0" type="curve" smooth="yes"/>
      <point x="425.0" y="736.0"/>
      <point x="437.0" y="750.0"/>
      <point x="454.0" y="750.0" type="curve" smooth="yes"/>
      <point x="470.0" y="750.0"/>
      <point x="484.0" y="736.0"/>
    </contour>
  </outline>
</glyph>
<glyph name="P" format="1">
  <advance width="560"/>
  <unicode hex="0050"/>
  <outline>
    <contour>
      <point x="64" y="636"/>
      <point x="51" y="623"/>
      <point x="34" y="623" type="curve" smooth="yes"/>
      <point x="19" y="623"/>
      <point x="5" y="636"/>
      <point x="5" y="652" type="curve" smooth="yes"/>
      <point x="5" y="668"/>
      <point x="19" y="681"/>
      <point x="34" y="681" type="curve" smooth="yes"/>
      <point x="51" y="681"/>
      <point x="64" y="668"/>
      <point x="64" y="652" type="curve" smooth="yes"/>
    </contour>
    <contour>
      <point x="344" y="704"/>
      <point x="331" y="691"/>
      <point x="314" y="691" type="curve" smooth="yes"/>
      <point x="298" y="691"/>
      <point x="285" y="704"/>
      <point x="285" y="721" type="curve" smooth="yes"/>
      <point x="285" y="736"/>
      <point x="298" y="750"/>
      <point x="314" y="750" type="curve" smooth="yes"/>
      <point x="331" y="750"/>
      <point x="344" y="736"/>
      <point x="344" y="721" type="curve" smooth="yes"/>
    </contour>
    <contour>
      <point x="414" y="704"/>
      <point x="400" y="691"/>
      <point x="384" y="691" type="curve" smooth="yes"/>
      <point x="368" y="691"/>
      <point x="355" y="704"/>
      <point x="355" y="721" type="curve" smooth="yes"/>
      <point x="355" y="736"/>
      <point x="368" y="750"/>
      <point x="384" y="750" type="curve" smooth="yes"/>
      <point x="400" y="750"/>
      <point x="414" y="736"/>
      <point x="414" y="721" type="curve" smooth="yes"/>
    </contour>
    <contour>
      <point x="274.0" y="306.0" type="curve" smooth="yes"/>
      <point x="274.0" y="290.0"/>
      <point x="261.0" y="277.0"/>
      <point x="244.0" y="277.0" type="curve" smooth="yes"/>
      <point x="228.0" y="277.0"/>
      <point x="215.0" y="290.0"/>
      <point x="215.0" y="306.0" type="curve" smooth="yes"/>
      <point x="215.0" y="322.0"/>
      <point x="228.0" y="335.0"/>
      <point x="244.0" y="335.0" type="curve" smooth="yes"/>
      <point x="261.0" y="335.0"/>
      <point x="274.0" y="322.0"/>
    </contour>
    <contour>
      <point x="64.0" y="375.0" type="curve" smooth="yes"/>
      <point x="64.0" y="359.0"/>
      <point x="51.0" y="346.0"/>
      <point x="34.0" y="346.0" type="curve" smooth="yes"/>
      <point x="19.0" y="346.0"/>
      <point x="5.0" y="359.0"/>
      <point x="5.0" y="375.0" type="curve" smooth="yes"/>
      <point x="5.0" y="392.0"/>
      <point x="19.0" y="404.0"/>
      <point x="34.0" y="404.0" type="curve" smooth="yes"/>
      <point x="51.0" y="404.0"/>
      <point x="64.0" y="392.0"/>
    </contour>
    <contour>
      <point x="64.0" y="168.0" type="curve" smooth="yes"/>
      <point x="64.0" y="152.0"/>
      <point x="51.0" y="138.0"/>
      <point x="34.0" y="138.0" type="curve" smooth="yes"/>
      <point x="19.0" y="138.0"/>
      <point x="5.0" y="152.0"/>
      <point x="5.0" y="168.0" type="curve" smooth="yes"/>
      <point x="5.0" y="184.0"/>
      <point x="19.0" y="197.0"/>
      <point x="34.0" y="197.0" type="curve" smooth="yes"/>
      <point x="51.0" y="197.0"/>
      <point x="64.0" y="184.0"/>
    </contour>
    <contour>
      <point x="134.0" y="306.0" type="curve" smooth="yes"/>
      <point x="134.0" y="290.0"/>
      <point x="121.0" y="277.0"/>
      <point x="104.0" y="277.0" type="curve" smooth="yes"/>
      <point x="89.0" y="277.0"/>
      <point x="75.0" y="290.0"/>
      <point x="75.0" y="306.0" type="curve" smooth="yes"/>
      <point x="75.0" y="322.0"/>
      <point x="89.0" y="335.0"/>
      <point x="104.0" y="335.0" type="curve" smooth="yes"/>
      <point x="121.0" y="335.0"/>
      <point x="134.0" y="322.0"/>
    </contour>
    <contour>
      <point x="204.0" y="306.0" type="curve" smooth="yes"/>
      <point x="204.0" y="290.0"/>
      <point x="191.0" y="277.0"/>
      <point x="174.0" y="277.0" type="curve" smooth="yes"/>
      <point x="159.0" y="277.0"/>
      <point x="145.0" y="290.0"/>
      <point x="145.0" y="306.0" type="curve" smooth="yes"/>
      <point x="145.0" y="322.0"/>
      <point x="159.0" y="335.0"/>
      <point x="174.0" y="335.0" type="curve" smooth="yes"/>
      <point x="191.0" y="335.0"/>
      <point x="204.0" y="322.0"/>
    </contour>
    <contour>
      <point x="64" y="582" type="curve" smooth="yes"/>
      <point x="64" y="566"/>
      <point x="51" y="553"/>
      <point x="34" y="553" type="curve" smooth="yes"/>
      <point x="19" y="553"/>
      <point x="5" y="566"/>
      <point x="5" y="582" type="curve" smooth="yes"/>
      <point x="5" y="598"/>
      <point x="19" y="611"/>
      <point x="34" y="611" type="curve" smooth="yes"/>
      <point x="51" y="611"/>
      <point x="64" y="598"/>
    </contour>
    <contour>
      <point x="64.0" y="29.0" type="curve" smooth="yes"/>
      <point x="64.0" y="14.0"/>
      <point x="51.0" y="0.0"/>
      <point x="34.0" y="0.0" type="curve" smooth="yes"/>
      <point x="19.0" y="0.0"/>
      <point x="5.0" y="14.0"/>
      <point x="5.0" y="29.0" type="curve" smooth="yes"/>
      <point x="5.0" y="46.0"/>
      <point x="19.0" y="58.0"/>
      <point x="34.0" y="58.0" type="curve" smooth="yes"/>
      <point x="51.0" y="58.0"/>
      <point x="64.0" y="46.0"/>
    </contour>
    <contour>
      <point x="274" y="721" type="curve" smooth="yes"/>
      <point x="274" y="704"/>
      <point x="260" y="691"/>
      <point x="244" y="691" type="curve" smooth="yes"/>
      <point x="228" y="691"/>
      <point x="215" y="704"/>
      <point x="215" y="721" type="curve" smooth="yes"/>
      <point x="215" y="736"/>
      <point x="228" y="750"/>
      <point x="244" y="750" type="curve" smooth="yes"/>
      <point x="260" y="750"/>
      <point x="274" y="736"/>
    </contour>
    <contour>
      <point x="484.0" y="375.0" type="curve" smooth="yes"/>
      <point x="484.0" y="359.0"/>
      <point x="470.0" y="346.0"/>
      <point x="454.0" y="346.0" type="curve" smooth="yes"/>
      <point x="437.0" y="346.0"/>
      <point x="425.0" y="359.0"/>
      <point x="425.0" y="375.0" type="curve" smooth="yes"/>
      <point x="425.0" y="392.0"/>
      <point x="437.0" y="404.0"/>
      <point x="454.0" y="404.0" type="curve" smooth="yes"/>
      <point x="470.0" y="404.0"/>
      <point x="484.0" y="392.0"/>
    </contour>
    <contour>
      <point x="64.0" y="513.0" type="curve" smooth="yes"/>
      <point x="64.0" y="497.0"/>
      <point x="51.0" y="484.0"/>
      <point x="34.0" y="484.0" type="curve" smooth="yes"/>
      <point x="19.0" y="484.0"/>
      <point x="5.0" y="497.0"/>
      <point x="5.0" y="513.0" type="curve" smooth="yes"/>
      <point x="5.0" y="529.0"/>
      <point x="19.0" y="542.0"/>
      <point x="34.0" y="542.0" type="curve" smooth="yes"/>
      <point x="51.0" y="542.0"/>
      <point x="64.0" y="529.0"/>
    </contour>
    <contour>
      <point x="484.0" y="582.0" type="curve" smooth="yes"/>
      <point x="484.0" y="566.0"/>
      <point x="470.0" y="553.0"/>
      <point x="454.0" y="553.0" type="curve" smooth="yes"/>
      <point x="437.0" y="553.0"/>
      <point x="425.0" y="566.0"/>
      <point x="425.0" y="582.0" type="curve" smooth="yes"/>
      <point x="425.0" y="598.0"/>
      <point x="437.0" y="611.0"/>
      <point x="454.0" y="611.0" type="curve" smooth="yes"/>
      <point x="470.0" y="611.0"/>
      <point x="484.0" y="598.0"/>
    </contour>
    <contour>
      <point x="64.0" y="98.0" type="curve" smooth="yes"/>
      <point x="64.0" y="83.0"/>
      <point x="51.0" y="69.0"/>
      <point x="34.0" y="69.0" type="curve" smooth="yes"/>
      <point x="19.0" y="69.0"/>
      <point x="5.0" y="83.0"/>
      <point x="5.0" y="98.0" type="curve" smooth="yes"/>
      <point x="5.0" y="115.0"/>
      <point x="19.0" y="128.0"/>
      <point x="34.0" y="128.0" type="curve" smooth="yes"/>
      <point x="51.0" y="128.0"/>
      <point x="64.0" y="115.0"/>
    </contour>
    <contour>
      <point x="414.0" y="306.0" type="curve" smooth="yes"/>
      <point x="414.0" y="290.0"/>
      <point x="400.0" y="277.0"/>
      <point x="384.0" y="277.0" type="curve" smooth="yes"/>
      <point x="367.0" y="277.0"/>
      <point x="355.0" y="290.0"/>
      <point x="355.0" y="306.0" type="curve" smooth="yes"/>
      <point x="355.0" y="322.0"/>
      <point x="367.0" y="335.0"/>
      <point x="384.0" y="335.0" type="curve" smooth="yes"/>
      <point x="400.0" y="335.0"/>
      <point x="414.0" y="322.0"/>
    </contour>
    <contour>
      <point x="484.0" y="651.0" type="curve" smooth="yes"/>
      <point x="484.0" y="635.0"/>
      <point x="470.0" y="622.0"/>
      <point x="454.0" y="622.0" type="curve" smooth="yes"/>
      <point x="437.0" y="622.0"/>
      <point x="425.0" y="635.0"/>
      <point x="425.0" y="651.0" type="curve" smooth="yes"/>
      <point x="425.0" y="667.0"/>
      <point x="437.0" y="681.0"/>
      <point x="454.0" y="681.0" type="curve" smooth="yes"/>
      <point x="470.0" y="681.0"/>
      <point x="484.0" y="667.0"/>
    </contour>
    <contour>
      <point x="344.0" y="306.0" type="curve" smooth="yes"/>
      <point x="344.0" y="290.0"/>
      <point x="330.0" y="277.0"/>
      <point x="314.0" y="277.0" type="curve" smooth="yes"/>
      <point x="298.0" y="277.0"/>
      <point x="285.0" y="290.0"/>
      <point x="285.0" y="306.0" type="curve" smooth="yes"/>
      <point x="285.0" y="322.0"/>
      <point x="298.0" y="335.0"/>
      <point x="314.0" y="335.0" type="curve" smooth="yes"/>
      <point x="330.0" y="335.0"/>
      <point x="344.0" y="322.0"/>
    </contour>
    <contour>
      <point x="134" y="721" type="curve" smooth="yes"/>
      <point x="134" y="704"/>
      <point x="121" y="691"/>
      <point x="104" y="691" type="curve" smooth="yes"/>
      <point x="89" y="691"/>
      <point x="75" y="704"/>
      <point x="75" y="721" type="curve" smooth="yes"/>
      <point x="75" y="736"/>
      <point x="89" y="750"/>
      <point x="104" y="750" type="curve" smooth="yes"/>
      <point x="121" y="750"/>
      <point x="134" y="736"/>
    </contour>
    <contour>
      <point x="484.0" y="444.0" type="curve" smooth="yes"/>
      <point x="484.0" y="427.0"/>
      <point x="470.0" y="415.0"/>
      <point x="454.0" y="415.0" type="curve" smooth="yes"/>
      <point x="437.0" y="415.0"/>
      <point x="425.0" y="427.0"/>
      <point x="425.0" y="444.0" type="curve" smooth="yes"/>
      <point x="425.0" y="461.0"/>
      <point x="437.0" y="473.0"/>
      <point x="454.0" y="473.0" type="curve" smooth="yes"/>
      <point x="470.0" y="473.0"/>
      <point x="484.0" y="461.0"/>
    </contour>
    <contour>
      <point x="484.0" y="513.0" type="curve" smooth="yes"/>
      <point x="484.0" y="497.0"/>
      <point x="470.0" y="484.0"/>
      <point x="454.0" y="484.0" type="curve" smooth="yes"/>
      <point x="437.0" y="484.0"/>
      <point x="425.0" y="497.0"/>
      <point x="425.0" y="513.0" type="curve" smooth="yes"/>
      <point x="425.0" y="529.0"/>
      <point x="437.0" y="542.0"/>
      <point x="454.0" y="542.0" type="curve" smooth="yes"/>
      <point x="470.0" y="542.0"/>
      <point x="484.0" y="529.0"/>
    </contour>
    <contour>
      <point x="64.0" y="237.0" type="curve" smooth="yes"/>
      <point x="64.0" y="221.0"/>
      <point x="51.0" y="208.0"/>
      <point x="34.0" y="208.0" type="curve" smooth="yes"/>
      <point x="19.0" y="208.0"/>
      <point x="5.0" y="221.0"/>
      <point x="5.0" y="237.0" type="curve" smooth="yes"/>
      <point x="5.0" y="253.0"/>
      <point x="19.0" y="266.0"/>
      <point x="34.0" y="266.0" type="curve" smooth="yes"/>
      <point x="51.0" y="266.0"/>
      <point x="64.0" y="253.0"/>
    </contour>
    <contour>
      <point x="64.0" y="306.0" type="curve" smooth="yes"/>
      <point x="64.0" y="290.0"/>
      <point x="51.0" y="277.0"/>
      <point x="34.0" y="277.0" type="curve" smooth="yes"/>
      <point x="19.0" y="277.0"/>
      <point x="5.0" y="290.0"/>
      <point x="5.0" y="306.0" type="curve" smooth="yes"/>
      <point x="5.0" y="322.0"/>
      <point x="19.0" y="335.0"/>
      <point x="34.0" y="335.0" type="curve" smooth="yes"/>
      <point x="51.0" y="335.0"/>
      <point x="64.0" y="322.0"/>
    </contour>
    <contour>
      <point x="204" y="721" type="curve" smooth="yes"/>
      <point x="204" y="704"/>
      <point x="191" y="691"/>
      <point x="174" y="691" type="curve" smooth="yes"/>
      <point x="158" y="691"/>
      <point x="145" y="704"/>
      <point x="145" y="721" type="curve" smooth="yes"/>
      <point x="145" y="736"/>
      <point x="158" y="750"/>
      <point x="174" y="750" type="curve" smooth="yes"/>
      <point x="191" y="750"/>
      <point x="204" y="736"/>
    </contour>
    <contour>
      <point x="64.0" y="444.0" type="curve" smooth="yes"/>
      <point x="64.0" y="427.0"/>
      <point x="51.0" y="415.0"/>
      <point x="34.0" y="415.0" type="curve" smooth="yes"/>
      <point x="19.0" y="415.0"/>
      <point x="5.0" y="427.0"/>
      <point x="5.0" y="444.0" type="curve" smooth="yes"/>
      <point x="5.0" y="461.0"/>
      <point x="19.0" y="473.0"/>
      <point x="34.0" y="473.0" type="curve" smooth="yes"/>
      <point x="51.0" y="473.0"/>
      <point x="64.0" y="461.0"/>
    </contour>
  </outline>
</glyph>
<glyph name="Q" format="1">
  <advance width="560"/>
  <unicode hex="0051"/>
  <outline>
    <contour>
      <point x="274" y="14"/>
      <point x="261" y="0"/>
      <point x="244" y="0" type="curve" smooth="yes"/>
      <point x="229" y="0"/>
      <point x="215" y="14"/>
      <point x="215" y="29" type="curve" smooth="yes"/>
      <point x="215" y="46"/>
      <point x="229" y="58"/>
      <point x="244" y="58" type="curve" smooth="yes"/>
      <point x="261" y="58"/>
      <point x="274" y="46"/>
      <point x="274" y="29" type="curve" smooth="yes"/>
    </contour>
    <contour>
      <point x="228.0" y="206.0"/>
      <point x="215.0" y="220.0"/>
      <point x="215.0" y="236.0" type="curve" smooth="yes"/>
      <point x="215.0" y="252.0"/>
      <point x="228.0" y="265.0"/>
      <point x="244.0" y="265.0" type="curve" smooth="yes"/>
      <point x="260.0" y="265.0"/>
      <point x="274.0" y="252.0"/>
      <point x="274.0" y="236.0" type="curve" smooth="yes"/>
      <point x="274.0" y="220.0"/>
      <point x="260.0" y="206.0"/>
      <point x="244.0" y="206.0" type="curve" smooth="yes"/>
    </contour>
    <contour>
      <point x="204.0" y="704.0"/>
      <point x="191.0" y="691.0"/>
      <point x="174.0" y="691.0" type="curve" smooth="yes"/>
      <point x="158.0" y="691.0"/>
      <point x="145.0" y="704.0"/>
      <point x="145.0" y="721.0" type="curve" smooth="yes"/>
      <point x="145.0" y="736.0"/>
      <point x="158.0" y="750.0"/>
      <point x="174.0" y="750.0" type="curve" smooth="yes"/>
      <point x="191.0" y="750.0"/>
      <point x="204.0" y="736.0"/>
      <point x="204.0" y="721.0" type="curve" smooth="yes"/>
    </contour>
    <contour>
      <point x="471.0" y="59.0"/>
      <point x="485.0" y="45.0"/>
      <point x="485.0" y="29.0" type="curve" smooth="yes"/>
      <point x="484.0" y="12.0"/>
      <point x="471.0" y="0.0"/>
      <point x="455.0" y="0.0" type="curve" smooth="yes"/>
      <point x="438.0" y="0.0"/>
      <point x="425.0" y="12.0"/>
      <point x="425.0" y="29.0" type="curve"/>
      <point x="425.0" y="45.0"/>
      <point x="439.0" y="59.0"/>
      <point x="455.0" y="59.0" type="curve" smooth="yes"/>
    </contour>
    <contour>
      <point x="401.0" y="128.0"/>
      <point x="415.0" y="114.0"/>
      <point x="415.0" y="98.0" type="curve" smooth="yes"/>
      <point x="414.0" y="81.0"/>
      <point x="401.0" y="69.0"/>
      <point x="385.0" y="69.0" type="curve" smooth="yes"/>
      <point x="368.0" y="69.0"/>
      <point x="355.0" y="81.0"/>
      <point x="355.0" y="98.0" type="curve"/>
      <point x="355.0" y="114.0"/>
      <point x="369.0" y="128.0"/>
      <point x="385.0" y="128.0" type="curve" smooth="yes"/>
    </contour>
    <contour>
      <point x="64.0" y="168.0" type="curve" smooth="yes"/>
      <point x="64.0" y="152.0"/>
      <point x="51.0" y="138.0"/>
      <point x="34.0" y="138.0" type="curve" smooth="yes"/>
      <point x="19.0" y="138.0"/>
      <point x="5.0" y="152.0"/>
      <point x="5.0" y="168.0" type="curve" smooth="yes"/>
      <point x="5.0" y="184.0"/>
      <point x="19.0" y="197.0"/>
      <point x="34.0" y="197.0" type="curve" smooth="yes"/>
      <point x="51.0" y="197.0"/>
      <point x="64.0" y="184.0"/>
    </contour>
    <contour>
      <point x="484.0" y="306.0" type="curve" smooth="yes"/>
      <point x="484.0" y="290.0"/>
      <point x="470.0" y="277.0"/>
      <point x="454.0" y="277.0" type="curve" smooth="yes"/>
      <point x="437.0" y="277.0"/>
      <point x="425.0" y="290.0"/>
      <point x="425.0" y="306.0" type="curve" smooth="yes"/>
      <point x="425.0" y="322.0"/>
      <point x="437.0" y="335.0"/>
      <point x="454.0" y="335.0" type="curve" smooth="yes"/>
      <point x="470.0" y="335.0"/>
      <point x="484.0" y="322.0"/>
    </contour>
    <contour>
      <point x="204" y="29" type="curve" smooth="yes"/>
      <point x="204" y="14"/>
      <point x="191" y="0"/>
      <point x="174" y="0" type="curve" smooth="yes"/>
      <point x="159" y="0"/>
      <point x="145" y="14"/>
      <point x="145" y="29" type="curve" smooth="yes"/>
      <point x="145" y="46"/>
      <point x="159" y="58"/>
      <point x="174" y="58" type="curve" smooth="yes"/>
      <point x="191" y="58"/>
      <point x="204" y="46"/>
    </contour>
    <contour>
      <point x="134.0" y="651.0" type="curve" smooth="yes"/>
      <point x="134.0" y="635.0"/>
      <point x="121.0" y="622.0"/>
      <point x="104.0" y="622.0" type="curve" smooth="yes"/>
      <point x="89.0" y="622.0"/>
      <point x="75.0" y="635.0"/>
      <point x="75.0" y="651.0" type="curve" smooth="yes"/>
      <point x="75.0" y="667.0"/>
      <point x="89.0" y="681.0"/>
      <point x="104.0" y="681.0" type="curve" smooth="yes"/>
      <point x="121.0" y="681.0"/>
      <point x="134.0" y="667.0"/>
    </contour>
    <contour>
      <point x="484.0" y="513.0" type="curve" smooth="yes"/>
      <point x="484.0" y="497.0"/>
      <point x="470.0" y="484.0"/>
      <point x="454.0" y="484.0" type="curve" smooth="yes"/>
      <point x="437.0" y="484.0"/>
      <point x="425.0" y="497.0"/>
      <point x="425.0" y="513.0" type="curve" smooth="yes"/>
      <point x="425.0" y="529.0"/>
      <point x="437.0" y="542.0"/>
      <point x="454.0" y="542.0" type="curve" smooth="yes"/>
      <point x="470.0" y="542.0"/>
      <point x="484.0" y="529.0"/>
    </contour>
    <contour>
      <point x="484.0" y="651.0" type="curve" smooth="yes"/>
      <point x="484.0" y="635.0"/>
      <point x="470.0" y="622.0"/>
      <point x="454.0" y="622.0" type="curve" smooth="yes"/>
      <point x="437.0" y="622.0"/>
      <point x="425.0" y="635.0"/>
      <point x="425.0" y="651.0" type="curve" smooth="yes"/>
      <point x="425.0" y="667.0"/>
      <point x="437.0" y="681.0"/>
      <point x="454.0" y="681.0" type="curve" smooth="yes"/>
      <point x="470.0" y="681.0"/>
      <point x="484.0" y="667.0"/>
    </contour>
    <contour>
      <point x="484.0" y="582.0" type="curve" smooth="yes"/>
      <point x="484.0" y="566.0"/>
      <point x="470.0" y="553.0"/>
      <point x="454.0" y="553.0" type="curve" smooth="yes"/>
      <point x="437.0" y="553.0"/>
      <point x="425.0" y="566.0"/>
      <point x="425.0" y="582.0" type="curve" smooth="yes"/>
      <point x="425.0" y="598.0"/>
      <point x="437.0" y="611.0"/>
      <point x="454.0" y="611.0" type="curve" smooth="yes"/>
      <point x="470.0" y="611.0"/>
      <point x="484.0" y="598.0"/>
    </contour>
    <contour>
      <point x="64.0" y="83.0"/>
      <point x="51.0" y="69.0"/>
      <point x="34.0" y="69.0" type="curve" smooth="yes"/>
      <point x="19.0" y="69.0"/>
      <point x="5.0" y="83.0"/>
      <point x="5.0" y="99.0" type="curve" smooth="yes"/>
      <point x="5.0" y="115.0"/>
      <point x="19.0" y="128.0"/>
      <point x="34.0" y="128.0" type="curve" smooth="yes"/>
      <point x="51.0" y="128.0"/>
      <point x="64.0" y="115.0"/>
      <point x="64.0" y="99.0" type="curve" smooth="yes"/>
    </contour>
    <contour>
      <point x="64.0" y="444.0" type="curve" smooth="yes"/>
      <point x="64.0" y="427.0"/>
      <point x="51.0" y="415.0"/>
      <point x="34.0" y="415.0" type="curve" smooth="yes"/>
      <point x="19.0" y="415.0"/>
      <point x="5.0" y="427.0"/>
      <point x="5.0" y="444.0" type="curve" smooth="yes"/>
      <point x="5.0" y="461.0"/>
      <point x="19.0" y="473.0"/>
      <point x="34.0" y="473.0" type="curve" smooth="yes"/>
      <point x="51.0" y="473.0"/>
      <point x="64.0" y="461.0"/>
    </contour>
    <contour>
      <point x="344.0" y="168.0" type="curve" smooth="yes"/>
      <point x="344.0" y="152.0"/>
      <point x="330" y="138"/>
      <point x="314" y="138" type="curve" smooth="yes"/>
      <point x="298" y="138"/>
      <point x="285.0" y="152.0"/>
      <point x="285.0" y="168.0" type="curve" smooth="yes"/>
      <point x="285.0" y="184.0"/>
      <point x="298.0" y="197.0"/>
      <point x="314.0" y="197.0" type="curve" smooth="yes"/>
      <point x="330.0" y="197.0"/>
      <point x="344.0" y="184.0"/>
    </contour>
    <contour>
      <point x="64.0" y="306.0" type="curve" smooth="yes"/>
      <point x="64.0" y="290.0"/>
      <point x="51.0" y="277.0"/>
      <point x="34.0" y="277.0" type="curve" smooth="yes"/>
      <point x="19.0" y="277.0"/>
      <point x="5.0" y="290.0"/>
      <point x="5.0" y="306.0" type="curve" smooth="yes"/>
      <point x="5.0" y="322.0"/>
      <point x="19.0" y="335.0"/>
      <point x="34.0" y="335.0" type="curve" smooth="yes"/>
      <point x="51.0" y="335.0"/>
      <point x="64.0" y="322.0"/>
    </contour>
    <contour>
      <point x="274.0" y="721.0" type="curve" smooth="yes"/>
      <point x="274.0" y="704.0"/>
      <point x="261.0" y="691.0"/>
      <point x="244.0" y="691.0" type="curve" smooth="yes"/>
      <point x="228.0" y="691.0"/>
      <point x="215.0" y="704.0"/>
      <point x="215.0" y="721.0" type="curve" smooth="yes"/>
      <point x="215.0" y="736.0"/>
      <point x="228.0" y="750.0"/>
      <point x="244.0" y="750.0" type="curve" smooth="yes"/>
      <point x="261.0" y="750.0"/>
      <point x="274.0" y="736.0"/>
    </contour>
    <contour>
      <point x="64.0" y="513.0" type="curve" smooth="yes"/>
      <point x="64.0" y="497.0"/>
      <point x="51.0" y="484.0"/>
      <point x="34.0" y="484.0" type="curve" smooth="yes"/>
      <point x="19.0" y="484.0"/>
      <point x="5.0" y="497.0"/>
      <point x="5.0" y="513.0" type="curve" smooth="yes"/>
      <point x="5.0" y="529.0"/>
      <point x="19.0" y="542.0"/>
      <point x="34.0" y="542.0" type="curve" smooth="yes"/>
      <point x="51.0" y="542.0"/>
      <point x="64.0" y="529.0"/>
    </contour>
    <contour>
      <point x="344.0" y="721.0" type="curve" smooth="yes"/>
      <point x="344.0" y="704.0"/>
      <point x="330.0" y="691.0"/>
      <point x="314.0" y="691.0" type="curve" smooth="yes"/>
      <point x="298.0" y="691.0"/>
      <point x="285.0" y="704.0"/>
      <point x="285.0" y="721.0" type="curve" smooth="yes"/>
      <point x="285.0" y="736.0"/>
      <point x="298.0" y="750.0"/>
      <point x="314.0" y="750.0" type="curve" smooth="yes"/>
      <point x="330.0" y="750.0"/>
      <point x="344.0" y="736.0"/>
    </contour>
    <contour>
      <point x="484.0" y="237.0" type="curve" smooth="yes"/>
      <point x="484.0" y="221.0"/>
      <point x="470.0" y="208.0"/>
      <point x="454.0" y="208.0" type="curve" smooth="yes"/>
      <point x="437.0" y="208.0"/>
      <point x="425.0" y="221.0"/>
      <point x="425.0" y="237.0" type="curve" smooth="yes"/>
      <point x="425.0" y="253.0"/>
      <point x="437.0" y="266.0"/>
      <point x="454.0" y="266.0" type="curve" smooth="yes"/>
      <point x="470.0" y="266.0"/>
      <point x="484.0" y="253.0"/>
    </contour>
    <contour>
      <point x="64.0" y="237.0" type="curve" smooth="yes"/>
      <point x="64.0" y="221.0"/>
      <point x="51.0" y="208.0"/>
      <point x="34.0" y="208.0" type="curve" smooth="yes"/>
      <point x="19.0" y="208.0"/>
      <point x="5.0" y="221.0"/>
      <point x="5.0" y="237.0" type="curve" smooth="yes"/>
      <point x="5.0" y="253.0"/>
      <point x="19.0" y="266.0"/>
      <point x="34.0" y="266.0" type="curve" smooth="yes"/>
      <point x="51.0" y="266.0"/>
      <point x="64.0" y="253.0"/>
    </contour>
    <contour>
      <point x="134.0" y="13.0"/>
      <point x="121.0" y="-1.0"/>
      <point x="104.0" y="-1.0" type="curve" smooth="yes"/>
      <point x="89.0" y="-1.0"/>
      <point x="75.0" y="13.0"/>
      <point x="75.0" y="28.0" type="curve" smooth="yes"/>
      <point x="75.0" y="45.0"/>
      <point x="89.0" y="58.0"/>
      <point x="104.0" y="58.0" type="curve" smooth="yes"/>
      <point x="121.0" y="58.0"/>
      <point x="134.0" y="45.0"/>
      <point x="134.0" y="28.0" type="curve" smooth="yes"/>
    </contour>
    <contour>
      <point x="414.0" y="721.0" type="curve" smooth="yes"/>
      <point x="414.0" y="704.0"/>
      <point x="400.0" y="691.0"/>
      <point x="384.0" y="691.0" type="curve" smooth="yes"/>
      <point x="367.0" y="691.0"/>
      <point x="355.0" y="704.0"/>
      <point x="355.0" y="721.0" type="curve" smooth="yes"/>
      <point x="355.0" y="736.0"/>
      <point x="367.0" y="750.0"/>
      <point x="384.0" y="750.0" type="curve" smooth="yes"/>
      <point x="400.0" y="750.0"/>
      <point x="414.0" y="736.0"/>
    </contour>
    <contour>
      <point x="484.0" y="444.0" type="curve" smooth="yes"/>
      <point x="484.0" y="427.0"/>
      <point x="470.0" y="415.0"/>
      <point x="454.0" y="415.0" type="curve" smooth="yes"/>
      <point x="437.0" y="415.0"/>
      <point x="425.0" y="427.0"/>
      <point x="425.0" y="444.0" type="curve" smooth="yes"/>
      <point x="425.0" y="461.0"/>
      <point x="437.0" y="473.0"/>
      <point x="454.0" y="473.0" type="curve" smooth="yes"/>
      <point x="470.0" y="473.0"/>
      <point x="484.0" y="461.0"/>
    </contour>
    <contour>
      <point x="64.0" y="582.0" type="curve" smooth="yes"/>
      <point x="64.0" y="566.0"/>
      <point x="51.0" y="553.0"/>
      <point x="34.0" y="553.0" type="curve" smooth="yes"/>
      <point x="19.0" y="553.0"/>
      <point x="5.0" y="566.0"/>
      <point x="5.0" y="582.0" type="curve" smooth="yes"/>
      <point x="5.0" y="598.0"/>
      <point x="19.0" y="611.0"/>
      <point x="34.0" y="611.0" type="curve" smooth="yes"/>
      <point x="51.0" y="611.0"/>
      <point x="64.0" y="598.0"/>
    </contour>
    <contour>
      <point x="64.0" y="375.0" type="curve" smooth="yes"/>
      <point x="64.0" y="359.0"/>
      <point x="51.0" y="346.0"/>
      <point x="34.0" y="346.0" type="curve" smooth="yes"/>
      <point x="19.0" y="346.0"/>
      <point x="5.0" y="359.0"/>
      <point x="5.0" y="375.0" type="curve" smooth="yes"/>
      <point x="5.0" y="392.0"/>
      <point x="19.0" y="404.0"/>
      <point x="34.0" y="404.0" type="curve" smooth="yes"/>
      <point x="51.0" y="404.0"/>
      <point x="64.0" y="392.0"/>
    </contour>
    <contour>
      <point x="484.0" y="375.0" type="curve" smooth="yes"/>
      <point x="484.0" y="359.0"/>
      <point x="470.0" y="346.0"/>
      <point x="454.0" y="346.0" type="curve" smooth="yes"/>
      <point x="437.0" y="346.0"/>
      <point x="425.0" y="359.0"/>
      <point x="425.0" y="375.0" type="curve" smooth="yes"/>
      <point x="425.0" y="392.0"/>
      <point x="437.0" y="404.0"/>
      <point x="454.0" y="404.0" type="curve" smooth="yes"/>
      <point x="470.0" y="404.0"/>
      <point x="484.0" y="392.0"/>
    </contour>
  </outline>
</glyph>
<glyph name="T" format="1">
  <advance width="560"/>
  <unicode hex="0054"/>
  <outline>
    <contour>
      <point x="215" y="306" type="curve" smooth="yes"/>
      <point x="215" y="290"/>
      <point x="228" y="277"/>
      <point x="245" y="277" type="curve" smooth="yes"/>
      <point x="261" y="277"/>
      <point x="274" y="290"/>
      <point x="274" y="306" type="curve" smooth="yes"/>
      <point x="274" y="322"/>
      <point x="261" y="335"/>
      <point x="245" y="335" type="curve" smooth="yes"/>
      <point x="228" y="335"/>
      <point x="215" y="322"/>
    </contour>
    <contour>
      <point x="425" y="721" type="curve" smooth="yes"/>
      <point x="425" y="704"/>
      <point x="438" y="691"/>
      <point x="455" y="691" type="curve" smooth="yes"/>
      <point x="470" y="691"/>
      <point x="484" y="704"/>
      <point x="484" y="721" type="curve" smooth="yes"/>
      <point x="484" y="736"/>
      <point x="470" y="750"/>
      <point x="455" y="750" type="curve" smooth="yes"/>
      <point x="438" y="750"/>
      <point x="425" y="736"/>
    </contour>
    <contour>
      <point x="215" y="168" type="curve" smooth="yes"/>
      <point x="215" y="152"/>
      <point x="228" y="138"/>
      <point x="245" y="138" type="curve" smooth="yes"/>
      <point x="261" y="138"/>
      <point x="274" y="152"/>
      <point x="274" y="168" type="curve" smooth="yes"/>
      <point x="274" y="184"/>
      <point x="261" y="197"/>
      <point x="245" y="197" type="curve" smooth="yes"/>
      <point x="228" y="197"/>
      <point x="215" y="184"/>
    </contour>
    <contour>
      <point x="215" y="582" type="curve" smooth="yes"/>
      <point x="215" y="566"/>
      <point x="228" y="553"/>
      <point x="245" y="553" type="curve" smooth="yes"/>
      <point x="261" y="553"/>
      <point x="274" y="566"/>
      <point x="274" y="582" type="curve" smooth="yes"/>
      <point x="274" y="598"/>
      <point x="261" y="611"/>
      <point x="245" y="611" type="curve" smooth="yes"/>
      <point x="228" y="611"/>
      <point x="215" y="598"/>
    </contour>
    <contour>
      <point x="145" y="721" type="curve" smooth="yes"/>
      <point x="145" y="704"/>
      <point x="159" y="691"/>
      <point x="175" y="691" type="curve" smooth="yes"/>
      <point x="191" y="691"/>
      <point x="204" y="704"/>
      <point x="204" y="721" type="curve" smooth="yes"/>
      <point x="204" y="736"/>
      <point x="191" y="750"/>
      <point x="175" y="750" type="curve" smooth="yes"/>
      <point x="159" y="750"/>
      <point x="145" y="736"/>
    </contour>
    <contour>
      <point x="355" y="721" type="curve" smooth="yes"/>
      <point x="355" y="704"/>
      <point x="368" y="691"/>
      <point x="385" y="691" type="curve" smooth="yes"/>
      <point x="400" y="691"/>
      <point x="414" y="704"/>
      <point x="414" y="721" type="curve" smooth="yes"/>
      <point x="414" y="736"/>
      <point x="400" y="750"/>
      <point x="385" y="750" type="curve" smooth="yes"/>
      <point x="368" y="750"/>
      <point x="355" y="736"/>
    </contour>
    <contour>
      <point x="75" y="721" type="curve" smooth="yes"/>
      <point x="75" y="704"/>
      <point x="89" y="691"/>
      <point x="105" y="691" type="curve" smooth="yes"/>
      <point x="122" y="691"/>
      <point x="134" y="704"/>
      <point x="134" y="721" type="curve" smooth="yes"/>
      <point x="134" y="736"/>
      <point x="122" y="750"/>
      <point x="105" y="750" type="curve" smooth="yes"/>
      <point x="89" y="750"/>
      <point x="75" y="736"/>
    </contour>
    <contour>
      <point x="215" y="98" type="curve" smooth="yes"/>
      <point x="215" y="83"/>
      <point x="228" y="69"/>
      <point x="245" y="69" type="curve" smooth="yes"/>
      <point x="261" y="69"/>
      <point x="274" y="83"/>
      <point x="274" y="98" type="curve" smooth="yes"/>
      <point x="274" y="115"/>
      <point x="261" y="128"/>
      <point x="245" y="128" type="curve" smooth="yes"/>
      <point x="228" y="128"/>
      <point x="215" y="115"/>
    </contour>
    <contour>
      <point x="215" y="237" type="curve" smooth="yes"/>
      <point x="215" y="221"/>
      <point x="228" y="208"/>
      <point x="245" y="208" type="curve" smooth="yes"/>
      <point x="261" y="208"/>
      <point x="274" y="221"/>
      <point x="274" y="237" type="curve" smooth="yes"/>
      <point x="274" y="253"/>
      <point x="261" y="266"/>
      <point x="245" y="266" type="curve" smooth="yes"/>
      <point x="228" y="266"/>
      <point x="215" y="253"/>
    </contour>
    <contour>
      <point x="215" y="29" type="curve" smooth="yes"/>
      <point x="215" y="14"/>
      <point x="228" y="0"/>
      <point x="245" y="0" type="curve" smooth="yes"/>
      <point x="261" y="0"/>
      <point x="274" y="14"/>
      <point x="274" y="29" type="curve" smooth="yes"/>
      <point x="274" y="46"/>
      <point x="261" y="58"/>
      <point x="245" y="58" type="curve" smooth="yes"/>
      <point x="228" y="58"/>
      <point x="215" y="46"/>
    </contour>
    <contour>
      <point x="215" y="444" type="curve" smooth="yes"/>
      <point x="215" y="427"/>
      <point x="228" y="415"/>
      <point x="245" y="415" type="curve" smooth="yes"/>
      <point x="261" y="415"/>
      <point x="274" y="427"/>
      <point x="274" y="444" type="curve" smooth="yes"/>
      <point x="274" y="461"/>
      <point x="261" y="473"/>
      <point x="245" y="473" type="curve" smooth="yes"/>
      <point x="228" y="473"/>
      <point x="215" y="461"/>
    </contour>
    <contour>
      <point x="285" y="721" type="curve" smooth="yes"/>
      <point x="285" y="704"/>
      <point x="298" y="691"/>
      <point x="315" y="691" type="curve" smooth="yes"/>
      <point x="330" y="691"/>
      <point x="344" y="704"/>
      <point x="344" y="721" type="curve" smooth="yes"/>
      <point x="344" y="736"/>
      <point x="330" y="750"/>
      <point x="315" y="750" type="curve" smooth="yes"/>
      <point x="298" y="750"/>
      <point x="285" y="736"/>
    </contour>
    <contour>
      <point x="215" y="651" type="curve" smooth="yes"/>
      <point x="215" y="635"/>
      <point x="228" y="622"/>
      <point x="245" y="622" type="curve" smooth="yes"/>
      <point x="261" y="622"/>
      <point x="274" y="635"/>
      <point x="274" y="651" type="curve" smooth="yes"/>
      <point x="274" y="667"/>
      <point x="261" y="681"/>
      <point x="245" y="681" type="curve" smooth="yes"/>
      <point x="228" y="681"/>
      <point x="215" y="667"/>
    </contour>
    <contour>
      <point x="215" y="721" type="curve" smooth="yes"/>
      <point x="215" y="704"/>
      <point x="228" y="691"/>
      <point x="245" y="691" type="curve" smooth="yes"/>
      <point x="261" y="691"/>
      <point x="274" y="704"/>
      <point x="274" y="721" type="curve" smooth="yes"/>
      <point x="274" y="736"/>
      <point x="261" y="750"/>
      <point x="245" y="750" type="curve" smooth="yes"/>
      <point x="228" y="750"/>
      <point x="215" y="736"/>
    </contour>
    <contour>
      <point x="5" y="721" type="curve" smooth="yes"/>
      <point x="5" y="704"/>
      <point x="19" y="691"/>
      <point x="35" y="691" type="curve" smooth="yes"/>
      <point x="52" y="691"/>
      <point x="64" y="704"/>
      <point x="64" y="721" type="curve" smooth="yes"/>
      <point x="64" y="736"/>
      <point x="52" y="750"/>
      <point x="35" y="750" type="curve" smooth="yes"/>
      <point x="19" y="750"/>
      <point x="5" y="736"/>
    </contour>
    <contour>
      <point x="215" y="513" type="curve" smooth="yes"/>
      <point x="215" y="497"/>
      <point x="228" y="484"/>
      <point x="245" y="484" type="curve" smooth="yes"/>
      <point x="261" y="484"/>
      <point x="274" y="497"/>
      <point x="274" y="513" type="curve" smooth="yes"/>
      <point x="274" y="529"/>
      <point x="261" y="542"/>
      <point x="245" y="542" type="curve" smooth="yes"/>
      <point x="228" y="542"/>
      <point x="215" y="529"/>
    </contour>
    <contour>
      <point x="215" y="375" type="curve" smooth="yes"/>
      <point x="215" y="359"/>
      <point x="228" y="346"/>
      <point x="245" y="346" type="curve" smooth="yes"/>
      <point x="261" y="346"/>
      <point x="274" y="359"/>
      <point x="274" y="375" type="curve" smooth="yes"/>
      <point x="274" y="392"/>
      <point x="261" y="404"/>
      <point x="245" y="404" type="curve" smooth="yes"/>
      <point x="228" y="404"/>
      <point x="215" y="392"/>
    </contour>
  </outline>
</glyph>
<glyph name="dotaccent" format="1">
  <advance width="500"/>
  <unicode hex="02D9"/>
  <outline>
    <contour>
      <point x="88.0615286353" y="694.326165638" type="curve" smooth="yes"/>
      <point x="100.298062593" y="694.326165638"/>
      <point x="110.309772195" y="684.314456036"/>
      <point x="110.309772195" y="672.077922078" type="curve" smooth="yes"/>
      <point x="110.309772195" y="659.84138812"/>
      <point x="100.298062593" y="649.829678518"/>
      <point x="88.0615286353" y="649.829678518" type="curve" smooth="yes"/>
      <point x="75.8249946775" y="649.829678518"/>
      <point x="65.8132850756" y="659.84138812"/>
      <point x="65.8132850756" y="672.077922078" type="curve" smooth="yes"/>
      <point x="65.8132850756" y="684.314456036"/>
      <point x="75.8249946775" y="694.326165638"/>
    </contour>
  </outline>
</glyph>
<glyph name="E.mod03" format="1">
  <advance width="0"/>
  <outline>
    <contour>
      <point x="64" y="582" type="curve" smooth="yes"/>
      <point x="64" y="566"/>
      <point x="51" y="553"/>
      <point x="34" y="553" type="curve" smooth="yes"/>
      <point x="19" y="553"/>
      <point x="5" y="566"/>
      <point x="5" y="582" type="curve" smooth="yes"/>
      <point x="5" y="598"/>
      <point x="19" y="611"/>
      <point x="34" y="611" type="curve" smooth="yes"/>
      <point x="51" y="611"/>
      <point x="64" y="598"/>
    </contour>
  </outline>
</glyph>
<glyph name="E.mod05" format="1">
  <advance width="0"/>
  <outline>
    <contour>
      <point x="64.0" y="444.0" type="curve" smooth="yes"/>
      <point x="64.0" y="427.0"/>
      <point x="51.0" y="415.0"/>
      <point x="34.0" y="415.0" type="curve" smooth="yes"/>
      <point x="19.0" y="415.0"/>
      <point x="5.0" y="427.0"/>
      <point x="5.0" y="444.0" type="curve" smooth="yes"/>
      <point x="5.0" y="461.0"/>
      <point x="19.0" y="473.0"/>
      <point x="34.0" y="473.0" type="curve" smooth="yes"/>
      <point x="51.0" y="473.0"/>
      <point x="64.0" y="461.0"/>
    </contour>
  </outline>
</glyph>
<glyph name="E.mod08" format="1">
  <advance width="0"/>
  <outline>
    <contour>
      <point x="34.0" y="208.0" type="curve" smooth="yes"/>
      <point x="19.0" y="208.0"/>
      <point x="5.0" y="220.0"/>
      <point x="5.0" y="237.0" type="curve" smooth="yes"/>
      <point x="5.0" y="254.0"/>
      <point x="19.0" y="266.0"/>
      <point x="34.0" y="266.0" type="curve" smooth="yes"/>
      <point x="51.0" y="266.0"/>
      <point x="64.0" y="254.0"/>
      <point x="64.0" y="237.0" type="curve" smooth="yes"/>
      <point x="64.0" y="220.0"/>
      <point x="51.0" y="208.0"/>
    </contour>
  </outline>
</glyph>
<glyph name="I.mod09" format="1">
  <advance width="0"/>
  <outline>
    <contour>
      <point x="274.0" y="168.0" type="curve" smooth="yes"/>
      <point x="274.0" y="152.0"/>
      <point x="261.0" y="138.0"/>
      <point x="244.0" y="138.0" type="curve" smooth="yes"/>
      <point x="228.0" y="138.0"/>
      <point x="215.0" y="152.0"/>
      <point x="215.0" y="168.0" type="curve" smooth="yes"/>
      <point x="215.0" y="184.0"/>
      <point x="228.0" y="197.0"/>
      <point x="244.0" y="197.0" type="curve" smooth="yes"/>
      <point x="261.0" y="197.0"/>
      <point x="274.0" y="184.0"/>
    </contour>
  </outline>
</glyph>
<glyph name="M.mod01" format="1">
  <advance width="0"/>
  <outline>
    <contour>
      <point x="64.0" y="721.0" type="curve" smooth="yes"/>
      <point x="64.0" y="704.0"/>
      <point x="51.0" y="691.0"/>
      <point x="34.0" y="691.0" type="curve" smooth="yes"/>
      <point x="19.0" y="691.0"/>
      <point x="5.0" y="704.0"/>
      <point x="5.0" y="721.0" type="curve" smooth="yes"/>
      <point x="5.0" y="736.0"/>
      <point x="19.0" y="750.0"/>
      <point x="34.0" y="750.0" type="curve" smooth="yes"/>
      <point x="51.0" y="750.0"/>
      <point x="64.0" y="736.0"/>
    </contour>
    <contour>
      <point x="484.0" y="721.0" type="curve" smooth="yes"/>
      <point x="484.0" y="704.0"/>
      <point x="470.0" y="691.0"/>
      <point x="454.0" y="691.0" type="curve" smooth="yes"/>
      <point x="437.0" y="691.0"/>
      <point x="425.0" y="704.0"/>
      <point x="425.0" y="721.0" type="curve" smooth="yes"/>
      <point x="425.0" y="736.0"/>
      <point x="437.0" y="750.0"/>
      <point x="454.0" y="750.0" type="curve" smooth="yes"/>
      <point x="470.0" y="750.0"/>
      <point x="484.0" y="736.0"/>
    </contour>
  </outline>
</glyph>
<glyph name="Q.mod08" format="1">
  <advance width="0"/>
  <outline>
    <contour>
      <point x="215.0" y="236.0" type="curve" smooth="yes"/>
      <point x="215.0" y="252.0"/>
      <point x="228.0" y="265.0"/>
      <point x="244.0" y="265.0" type="curve" smooth="yes"/>
      <point x="260.0" y="265.0"/>
      <point x="274.0" y="252.0"/>
      <point x="274.0" y="236.0" type="curve" smooth="yes"/>
      <point x="274.0" y="220.0"/>
      <point x="260.0" y="206.0"/>
      <point x="244.0" y="206.0" type="curve" smooth="yes"/>
      <point x="228.0" y="206.0"/>
      <point x="215.0" y="220.0"/>
    </contour>
    <contour>
      <point x="484.0" y="237.0" type="curve" smooth="yes"/>
      <point x="484.0" y="221.0"/>
      <point x="470.0" y="208.0"/>
      <point x="454.0" y="208.0" type="curve" smooth="yes"/>
      <point x="437.0" y="208.0"/>
      <point x="425.0" y="221.0"/>
      <point x="425.0" y="237.0" type="curve" smooth="yes"/>
      <point x="425.0" y="253.0"/>
      <point x="437.0" y="266.0"/>
      <point x="454.0" y="266.0" type="curve" smooth="yes"/>
      <point x="470.0" y="266.0"/>
      <point x="484.0" y="253.0"/>
    </contour>
    <contour>
      <point x="64.0" y="237.0" type="curve" smooth="yes"/>
      <point x="64.0" y="221.0"/>
      <point x="51.0" y="208.0"/>
      <point x="34.0" y="208.0" type="curve" smooth="yes"/>
      <point x="19.0" y="208.0"/>
      <point x="5.0" y="221.0"/>
      <point x="5.0" y="237.0" type="curve" smooth="yes"/>
      <point x="5.0" y="253.0"/>
      <point x="19.0" y="266.0"/>
      <point x="34.0" y="266.0" type="curve" smooth="yes"/>
      <point x="51.0" y="266.0"/>
      <point x="64.0" y="253.0"/>
    </contour>
  </outline>
</glyph>
<glyph name="Q.mod09" format="1">
  <advance width="0"/>
  <outline>
    <contour>
      <point x="64.0" y="168.0" type="curve" smooth="yes"/>
      <point x="64.0" y="152.0"/>
      <point x="51.0" y="138.0"/>
      <point x="34.0" y="138.0" type="curve" smooth="yes"/>
      <point x="19.0" y="138.0"/>
      <point x="5.0" y="152.0"/>
      <point x="5.0" y="168.0" type="curve" smooth="yes"/>
      <point x="5.0" y="184.0"/>
      <point x="19.0" y="197.0"/>
      <point x="34.0" y="197.0" type="curve" smooth="yes"/>
      <point x="51.0" y="197.0"/>
      <point x="64.0" y="184.0"/>
    </contour>
    <contour>
      <point x="344.0" y="168.0" type="curve" smooth="yes"/>
      <point x="344.0" y="152.0"/>
      <point x="330" y="138"/>
      <point x="314" y="138" type="curve" smooth="yes"/>
      <point x="298" y="138"/>
      <point x="285.0" y="152.0"/>
      <point x="285.0" y="168.0" type="curve" smooth="yes"/>
      <point x="285.0" y="184.0"/>
      <point x="298.0" y="197.0"/>
      <point x="314.0" y="197.0" type="curve" smooth="yes"/>
      <point x="330.0" y="197.0"/>
      <point x="344.0" y="184.0"/>
    </contour>
  </outline>
</glyph>
<glyph name="Q.mod11" format="1">
  <advance width="560"/>
  <outline>
    <contour>
      <point x="244" y="0" type="curve" smooth="yes"/>
      <point x="229" y="0"/>
      <point x="215" y="14"/>
      <point x="215" y="29" type="curve" smooth="yes"/>
      <point x="215" y="46"/>
      <point x="229" y="58"/>
      <point x="244" y="58" type="curve" smooth="yes"/>
      <point x="261" y="58"/>
      <point x="274" y="46"/>
      <point x="274" y="29" type="curve" smooth="yes"/>
      <point x="274" y="14"/>
      <point x="261" y="0"/>
    </contour>
    <contour>
      <point x="485.0" y="29.0" type="curve"/>
      <point x="484.0" y="12.0"/>
      <point x="471.0" y="0.0"/>
      <point x="455.0" y="0.0" type="curve" smooth="yes"/>
      <point x="438.0" y="0.0"/>
      <point x="425.0" y="12.0"/>
      <point x="425.0" y="29.0" type="curve" smooth="yes"/>
      <point x="425.0" y="45.0"/>
      <point x="439.0" y="59.0"/>
      <point x="455.0" y="59.0" type="curve" smooth="yes"/>
      <point x="471.0" y="59.0"/>
      <point x="485.0" y="45.0"/>
    </contour>
    <contour>
      <point x="204" y="29" type="curve" smooth="yes"/>
      <point x="204" y="14"/>
      <point x="191" y="0"/>
      <point x="174" y="0" type="curve" smooth="yes"/>
      <point x="159" y="0"/>
      <point x="145" y="14"/>
      <point x="145" y="29" type="curve" smooth="yes"/>
      <point x="145" y="46"/>
      <point x="159" y="58"/>
      <point x="174" y="58" type="curve" smooth="yes"/>
      <point x="191" y="58"/>
      <point x="204" y="46"/>
    </contour>
    <contour>
      <point x="104.0" y="-1.0" type="curve" smooth="yes"/>
      <point x="89.0" y="-1.0"/>
      <point x="75.0" y="13.0"/>
      <point x="75.0" y="28.0" type="curve" smooth="yes"/>
      <point x="75.0" y="45.0"/>
      <point x="89.0" y="58.0"/>
      <point x="104.0" y="58.0" type="curve" smooth="yes"/>
      <point x="121.0" y="58.0"/>
      <point x="134.0" y="45.0"/>
      <point x="134.0" y="28.0" type="curve" smooth="yes"/>
      <point x="134.0" y="13.0"/>
      <point x="121.0" y="-1.0"/>
    </contour>
  </outline>
</glyph>
<glyph name="R.mod09" format="1">
  <advance width="0"/>
  <outline>
    <contour>
      <point x="384.0" y="138.0" type="curve" smooth="yes"/>
      <point x="367.0" y="138.0"/>
      <point x="355.0" y="152.0"/>
      <point x="355.0" y="168.0" type="curve" smooth="yes"/>
      <point x="355.0" y="184.0"/>
      <point x="367.0" y="197.0"/>
      <point x="384.0" y="197.0" type="curve" smooth="yes"/>
      <point x="400.0" y="197.0"/>
      <point x="414.0" y="184.0"/>
      <point x="414.0" y="168.0" type="curve" smooth="yes"/>
      <point x="414.0" y="152.0"/>
      <point x="400.0" y="138.0"/>
    </contour>
    <contour>
      <point x="64.0" y="168.0" type="curve" smooth="yes"/>
      <point x="64.0" y="152.0"/>
      <point x="51.0" y="138.0"/>
      <point x="34.0" y="138.0" type="curve" smooth="yes"/>
      <point x="19.0" y="138.0"/>
      <point x="5.0" y="152.0"/>
      <point x="5.0" y="168.0" type="curve" smooth="yes"/>
      <point x="5.0" y="184.0"/>
      <point x="19.0" y="197.0"/>
      <point x="34.0" y="197.0" type="curve" smooth="yes"/>
      <point x="51.0" y="197.0"/>
      <point x="64.0" y="184.0"/>
    </contour>
  </outline>
</glyph>
<glyph name="S.mod01" format="1">
  <advance width="0"/>
  <outline>
    <contour>
      <point x="314" y="691" type="curve" smooth="yes"/>
      <point x="298" y="691"/>
      <point x="285" y="704"/>
      <point x="285" y="721" type="curve" smooth="yes"/>
      <point x="285" y="736"/>
      <point x="298" y="750"/>
      <point x="314" y="750" type="curve" smooth="yes"/>
      <point x="330" y="750"/>
      <point x="344" y="736"/>
      <point x="344" y="721" type="curve" smooth="yes"/>
      <point x="344" y="704"/>
      <point x="330" y="691"/>
    </contour>
    <contour>
      <point x="274" y="721" type="curve" smooth="yes"/>
      <point x="274" y="704"/>
      <point x="260" y="691"/>
      <point x="244" y="691" type="curve" smooth="yes"/>
      <point x="228" y="691"/>
      <point x="215" y="704"/>
      <point x="215" y="721" type="curve" smooth="yes"/>
      <point x="215" y="736"/>
      <point x="228" y="750"/>
      <point x="244" y="750" type="curve" smooth="yes"/>
      <point x="260" y="750"/>
      <point x="274" y="736"/>
    </contour>
    <contour>
      <point x="414.0" y="721.0" type="curve" smooth="yes"/>
      <point x="414.0" y="704.0"/>
      <point x="400.0" y="691.0"/>
      <point x="384.0" y="691.0" type="curve" smooth="yes"/>
      <point x="367.0" y="691.0"/>
      <point x="355.0" y="704.0"/>
      <point x="355.0" y="721.0" type="curve" smooth="yes"/>
      <point x="355.0" y="736.0"/>
      <point x="367.0" y="750.0"/>
      <point x="384.0" y="750.0" type="curve" smooth="yes"/>
      <point x="400.0" y="750.0"/>
      <point x="414.0" y="736.0"/>
    </contour>
    <contour>
      <point x="134" y="721" type="curve" smooth="yes"/>
      <point x="134" y="704"/>
      <point x="121" y="691"/>
      <point x="104" y="691" type="curve" smooth="yes"/>
      <point x="89" y="691"/>
      <point x="75" y="704"/>
      <point x="75" y="721" type="curve" smooth="yes"/>
      <point x="75" y="736"/>
      <point x="89" y="750"/>
      <point x="104" y="750" type="curve" smooth="yes"/>
      <point x="121" y="750"/>
      <point x="134" y="736"/>
    </contour>
    <contour>
      <point x="204" y="721" type="curve" smooth="yes"/>
      <point x="204" y="704"/>
      <point x="191" y="691"/>
      <point x="174" y="691" type="curve" smooth="yes"/>
      <point x="158" y="691"/>
      <point x="145" y="704"/>
      <point x="145" y="721" type="curve" smooth="yes"/>
      <point x="145" y="736"/>
      <point x="158" y="750"/>
      <point x="174" y="750" type="curve" smooth="yes"/>
      <point x="191" y="750"/>
      <point x="204" y="736"/>
    </contour>
  </outline>
</glyph>
<glyph name="S.mod05" format="1">
  <advance width="0"/>
  <outline>
    <contour>
      <point x="204" y="444" type="curve" smooth="yes"/>
      <point x="204" y="428"/>
      <point x="191" y="415"/>
      <point x="174" y="415" type="curve" smooth="yes"/>
      <point x="159" y="415"/>
      <point x="145" y="428"/>
      <point x="145" y="444" type="curve" smooth="yes"/>
      <point x="145" y="461"/>
      <point x="159" y="473"/>
      <point x="174" y="473" type="curve" smooth="yes"/>
      <point x="191" y="473"/>
      <point x="204" y="461"/>
    </contour>
  </outline>
</glyph>
<glyph name="S.mod06" format="1">
  <advance width="0"/>
  <outline>
    <contour>
      <point x="274" y="375" type="curve" smooth="yes"/>
      <point x="274" y="358"/>
      <point x="260" y="346"/>
      <point x="244" y="346" type="curve" smooth="yes"/>
      <point x="228" y="346"/>
      <point x="215" y="358"/>
      <point x="215" y="375" type="curve" smooth="yes"/>
      <point x="215" y="392"/>
      <point x="228" y="404"/>
      <point x="244" y="404" type="curve" smooth="yes"/>
      <point x="260" y="404"/>
      <point x="274" y="392"/>
    </contour>
  </outline>
</glyph>
<glyph name="S.mod07" format="1">
  <advance width="0"/>
  <outline>
    <contour>
      <point x="344" y="306" type="curve" smooth="yes"/>
      <point x="344" y="290"/>
      <point x="330" y="277"/>
      <point x="314" y="277" type="curve" smooth="yes"/>
      <point x="297" y="277"/>
      <point x="285" y="290"/>
      <point x="285" y="306" type="curve" smooth="yes"/>
      <point x="285" y="323"/>
      <point x="297" y="335"/>
      <point x="314" y="335" type="curve" smooth="yes"/>
      <point x="330" y="335"/>
      <point x="344" y="323"/>
    </contour>
  </outline>
</glyph>
<glyph name="S.mod10" format="1">
  <advance width="0"/>
  <outline>
    <contour>
      <point x="34" y="69" type="curve" smooth="yes"/>
      <point x="19" y="69"/>
      <point x="5" y="83"/>
      <point x="5" y="99" type="curve" smooth="yes"/>
      <point x="5" y="115"/>
      <point x="19" y="128"/>
      <point x="34" y="128" type="curve" smooth="yes"/>
      <point x="51" y="128"/>
      <point x="64" y="115"/>
      <point x="64" y="99" type="curve" smooth="yes"/>
      <point x="64" y="83"/>
      <point x="51" y="69"/>
    </contour>
    <contour>
      <point x="484" y="98" type="curve" smooth="yes"/>
      <point x="484" y="83"/>
      <point x="470" y="69"/>
      <point x="454" y="69" type="curve" smooth="yes"/>
      <point x="437" y="69"/>
      <point x="425" y="83"/>
      <point x="425" y="98" type="curve" smooth="yes"/>
      <point x="425" y="115"/>
      <point x="437" y="128"/>
      <point x="454" y="128" type="curve" smooth="yes"/>
      <point x="470" y="128"/>
      <point x="484" y="115"/>
    </contour>
  </outline>
</glyph>
<glyph name="T.mod07" format="1">
  <advance width="0"/>
  <outline>
    <contour>
      <point x="215" y="306" type="curve" smooth="yes"/>
      <point x="215" y="290"/>
      <point x="228" y="277"/>
      <point x="245" y="277" type="curve" smooth="yes"/>
      <point x="261" y="277"/>
      <point x="274" y="290"/>
      <point x="274" y="306" type="curve" smooth="yes"/>
      <point x="274" y="322"/>
      <point x="261" y="335"/>
      <point x="245" y="335" type="curve" smooth="yes"/>
      <point x="228" y="335"/>
      <point x="215" y="322"/>
    </contour>
  </outline>
</glyph>
<glyph name="T.mod09" format="1">
  <advance width="0"/>
  <outline>
    <contour>
      <point x="215" y="168" type="curve" smooth="yes"/>
      <point x="215" y="152"/>
      <point x="228" y="138"/>
      <point x="245" y="138" type="curve" smooth="yes"/>
      <point x="261" y="138"/>
      <point x="274" y="152"/>
      <point x="274" y="168" type="curve" smooth="yes"/>
      <point x="274" y="184"/>
      <point x="261" y="197"/>
      <point x="245" y="197" type="curve" smooth="yes"/>
      <point x="228" y="197"/>
      <point x="215" y="184"/>
    </contour>
  </outline>
</glyph>
<glyph name="U.mod10" format="1">
  <advance width="0"/>
  <outline>
    <contour>
      <point x="103" y="69" type="curve" smooth="yes"/>
      <point x="88" y="69"/>
      <point x="74" y="83"/>
      <point x="74" y="98" type="curve" smooth="yes"/>
      <point x="74" y="115"/>
      <point x="88" y="128"/>
      <point x="103" y="128" type="curve" smooth="yes"/>
      <point x="120" y="128"/>
      <point x="133" y="115"/>
      <point x="133" y="98" type="curve" smooth="yes"/>
      <point x="133" y="83"/>
      <point x="120" y="69"/>
    </contour>
    <contour>
      <point x="414.0" y="98.0" type="curve" smooth="yes"/>
      <point x="414.0" y="83.0"/>
      <point x="400.0" y="69.0"/>
      <point x="384.0" y="69.0" type="curve" smooth="yes"/>
      <point x="367.0" y="69.0"/>
      <point x="355.0" y="83.0"/>
      <point x="355.0" y="98.0" type="curve" smooth="yes"/>
      <point x="355.0" y="115.0"/>
      <point x="367.0" y="128.0"/>
      <point x="384.0" y="128.0" type="curve" smooth="yes"/>
      <point x="400.0" y="128.0"/>
      <point x="414.0" y="115.0"/>
    </contour>
  </outline>
</glyph>
<glyph name="V.mod01" format="1">
  <advance width="0"/>
  <outline>
    <contour>
      <point x="64" y="721" type="curve" smooth="yes"/>
      <point x="64" y="705"/>
      <point x="51" y="692"/>
      <point x="34" y="692" type="curve" smooth="yes"/>
      <point x="19" y="692"/>
      <point x="5" y="705"/>
      <point x="5" y="721" type="curve" smooth="yes"/>
      <point x="5" y="737"/>
      <point x="19" y="750"/>
      <point x="34" y="750" type="curve" smooth="yes"/>
      <point x="51" y="750"/>
      <point x="64" y="737"/>
    </contour>
    <contour>
      <point x="484" y="721" type="curve" smooth="yes"/>
      <point x="484" y="705"/>
      <point x="470" y="692"/>
      <point x="454" y="692" type="curve" smooth="yes"/>
      <point x="437" y="692"/>
      <point x="425" y="705"/>
      <point x="425" y="721" type="curve" smooth="yes"/>
      <point x="425" y="737"/>
      <point x="437" y="750"/>
      <point x="454" y="750" type="curve" smooth="yes"/>
      <point x="470" y="750"/>
      <point x="484" y="737"/>
    </contour>
  </outline>
</glyph>
<glyph name="V.mod05" format="1">
  <advance width="0"/>
  <outline>
    <contour>
      <point x="64" y="445" type="curve" smooth="yes"/>
      <point x="64" y="429"/>
      <point x="51" y="416"/>
      <point x="34" y="416" type="curve" smooth="yes"/>
      <point x="19" y="416"/>
      <point x="5" y="429"/>
      <point x="5" y="445" type="curve" smooth="yes"/>
      <point x="5" y="461"/>
      <point x="19" y="474"/>
      <point x="34" y="474" type="curve" smooth="yes"/>
      <point x="51" y="474"/>
      <point x="64" y="461"/>
    </contour>
    <contour>
      <point x="484" y="445" type="curve" smooth="yes"/>
      <point x="484" y="429"/>
      <point x="470" y="416"/>
      <point x="454" y="416" type="curve" smooth="yes"/>
      <point x="437" y="416"/>
      <point x="425" y="429"/>
      <point x="425" y="445" type="curve" smooth="yes"/>
      <point x="425" y="461"/>
      <point x="437" y="474"/>
      <point x="454" y="474" type="curve" smooth="yes"/>
      <point x="470" y="474"/>
      <point x="484" y="461"/>
    </contour>
  </outline>
</glyph>
<glyph name="V.mod06" format="1">
  <advance width="0"/>
  <outline>
    <contour>
      <point x="134" y="376" type="curve" smooth="yes"/>
      <point x="134" y="360"/>
      <point x="121" y="347"/>
      <point x="104" y="347" type="curve" smooth="yes"/>
      <point x="89" y="347"/>
      <point x="75" y="360"/>
      <point x="75" y="376" type="curve" smooth="yes"/>
      <point x="75" y="392"/>
      <point x="89" y="405"/>
      <point x="104" y="405" type="curve" smooth="yes"/>
      <point x="121" y="405"/>
      <point x="134" y="392"/>
    </contour>
    <contour>
      <point x="414" y="376" type="curve" smooth="yes"/>
      <point x="414" y="360"/>
      <point x="400" y="347"/>
      <point x="384" y="347" type="curve" smooth="yes"/>
      <point x="367" y="347"/>
      <point x="355" y="360"/>
      <point x="355" y="376" type="curve" smooth="yes"/>
      <point x="355" y="392"/>
      <point x="367" y="405"/>
      <point x="384" y="405" type="curve" smooth="yes"/>
      <point x="400" y="405"/>
      <point x="414" y="392"/>
    </contour>
  </outline>
</glyph>
<glyph name="V.mod08" format="1">
  <advance width="0"/>
  <outline>
    <contour>
      <point x="204" y="237" type="curve" smooth="yes"/>
      <point x="204" y="222"/>
      <point x="191" y="208"/>
      <point x="174" y="208" type="curve" smooth="yes"/>
      <point x="159" y="208"/>
      <point x="145" y="222"/>
      <point x="145" y="237" type="curve" smooth="yes"/>
      <point x="145" y="254"/>
      <point x="159" y="267"/>
      <point x="174" y="267" type="curve" smooth="yes"/>
      <point x="191" y="267"/>
      <point x="204" y="254"/>
    </contour>
    <contour>
      <point x="344" y="237" type="curve" smooth="yes"/>
      <point x="344" y="222"/>
      <point x="330" y="208"/>
      <point x="314" y="208" type="curve" smooth="yes"/>
      <point x="298" y="208"/>
      <point x="285" y="222"/>
      <point x="285" y="237" type="curve" smooth="yes"/>
      <point x="285" y="254"/>
      <point x="298" y="267"/>
      <point x="314" y="267" type="curve" smooth="yes"/>
      <point x="330" y="267"/>
      <point x="344" y="254"/>
    </contour>
  </outline>
</glyph>
<glyph name="V.mod10" format="1">
  <advance width="0"/>
  <outline>
    <contour>
      <point x="274" y="99" type="curve" smooth="yes"/>
      <point x="274" y="84"/>
      <point x="261" y="70"/>
      <point x="244" y="70" type="curve" smooth="yes"/>
      <point x="228" y="70"/>
      <point x="215" y="84"/>
      <point x="215" y="99" type="curve" smooth="yes"/>
      <point x="215" y="116"/>
      <point x="228" y="129"/>
      <point x="244" y="129" type="curve" smooth="yes"/>
      <point x="261" y="129"/>
      <point x="274" y="116"/>
    </contour>
  </outline>
</glyph>
<glyph name="X.mod01" format="1">
  <advance width="0"/>
  <outline>
    <contour>
      <point x="35.0" y="750.0" type="curve" smooth="yes"/>
      <point x="52.0" y="750.0"/>
      <point x="64.0" y="736.0"/>
      <point x="64.0" y="721.0" type="curve" smooth="yes"/>
      <point x="64.0" y="704.0"/>
      <point x="52.0" y="692.0"/>
      <point x="35.0" y="692.0" type="curve" smooth="yes"/>
      <point x="19.0" y="692.0"/>
      <point x="5.0" y="704.0"/>
      <point x="5.0" y="721.0" type="curve" smooth="yes"/>
      <point x="5.0" y="736.0"/>
      <point x="19.0" y="750.0"/>
    </contour>
    <contour>
      <point x="455.0" y="750.0" type="curve" smooth="yes"/>
      <point x="470.0" y="750.0"/>
      <point x="484.0" y="736.0"/>
      <point x="484.0" y="721.0" type="curve" smooth="yes"/>
      <point x="484.0" y="704.0"/>
      <point x="470.0" y="692.0"/>
      <point x="455.0" y="692.0" type="curve" smooth="yes"/>
      <point x="438.0" y="692.0"/>
      <point x="425.0" y="704.0"/>
      <point x="425.0" y="721.0" type="curve" smooth="yes"/>
      <point x="425.0" y="736.0"/>
      <point x="438.0" y="750.0"/>
    </contour>
  </outline>
</glyph>
<glyph name="eight.mod01" format="1">
  <advance width="0"/>
  <outline>
    <contour>
      <point x="344.0" y="721.0" type="curve" smooth="yes"/>
      <point x="344.0" y="704.0"/>
      <point x="330.0" y="691.0"/>
      <point x="314.0" y="691.0" type="curve" smooth="yes"/>
      <point x="298.0" y="691.0"/>
      <point x="285.0" y="704.0"/>
      <point x="285.0" y="721.0" type="curve" smooth="yes"/>
      <point x="285.0" y="736.0"/>
      <point x="298.0" y="750.0"/>
      <point x="314.0" y="750.0" type="curve" smooth="yes"/>
      <point x="330.0" y="750.0"/>
      <point x="344.0" y="736.0"/>
    </contour>
    <contour>
      <point x="414.0" y="721.0" type="curve" smooth="yes"/>
      <point x="414.0" y="704.0"/>
      <point x="400.0" y="691.0"/>
      <point x="384.0" y="691.0" type="curve" smooth="yes"/>
      <point x="367.0" y="691.0"/>
      <point x="355.0" y="704.0"/>
      <point x="355.0" y="721.0" type="curve" smooth="yes"/>
      <point x="355.0" y="736.0"/>
      <point x="367.0" y="750.0"/>
      <point x="384.0" y="750.0" type="curve" smooth="yes"/>
      <point x="400.0" y="750.0"/>
      <point x="414.0" y="736.0"/>
    </contour>
    <contour>
      <point x="204.0" y="721.0" type="curve" smooth="yes"/>
      <point x="204.0" y="704.0"/>
      <point x="191.0" y="691.0"/>
      <point x="174.0" y="691.0" type="curve" smooth="yes"/>
      <point x="159.0" y="691.0"/>
      <point x="145.0" y="704.0"/>
      <point x="145.0" y="721.0" type="curve" smooth="yes"/>
      <point x="145.0" y="736.0"/>
      <point x="159.0" y="750.0"/>
      <point x="174.0" y="750.0" type="curve" smooth="yes"/>
      <point x="191.0" y="750.0"/>
      <point x="204.0" y="736.0"/>
    </contour>
    <contour>
      <point x="274.0" y="721.0" type="curve" smooth="yes"/>
      <point x="274.0" y="704.0"/>
      <point x="261.0" y="691.0"/>
      <point x="244.0" y="691.0" type="curve" smooth="yes"/>
      <point x="228.0" y="691.0"/>
      <point x="215.0" y="704.0"/>
      <point x="215.0" y="721.0" type="curve" smooth="yes"/>
      <point x="215.0" y="736.0"/>
      <point x="228.0" y="750.0"/>
      <point x="244.0" y="750.0" type="curve" smooth="yes"/>
      <point x="261.0" y="750.0"/>
      <point x="274.0" y="736.0"/>
    </contour>
  </outline>
</glyph>
<glyph name="eight.mod02" format="1">
  <advance width="0"/>
  <outline>
    <contour>
      <point x="134.0" y="651.0" type="curve" smooth="yes"/>
      <point x="134.0" y="635.0"/>
      <point x="121.0" y="622.0"/>
      <point x="104.0" y="622.0" type="curve" smooth="yes"/>
      <point x="89.0" y="622.0"/>
      <point x="75.0" y="635.0"/>
      <point x="75.0" y="651.0" type="curve" smooth="yes"/>
      <point x="75.0" y="667.0"/>
      <point x="89.0" y="681.0"/>
      <point x="104.0" y="681.0" type="curve" smooth="yes"/>
      <point x="121.0" y="681.0"/>
      <point x="134.0" y="667.0"/>
    </contour>
    <contour>
      <point x="484.0" y="651.0" type="curve" smooth="yes"/>
      <point x="484.0" y="635.0"/>
      <point x="470.0" y="622.0"/>
      <point x="454.0" y="622.0" type="curve" smooth="yes"/>
      <point x="437.0" y="622.0"/>
      <point x="425.0" y="635.0"/>
      <point x="425.0" y="651.0" type="curve" smooth="yes"/>
      <point x="425.0" y="667.0"/>
      <point x="437.0" y="681.0"/>
      <point x="454.0" y="681.0" type="curve" smooth="yes"/>
      <point x="470.0" y="681.0"/>
      <point x="484.0" y="667.0"/>
    </contour>
  </outline>
</glyph>
<glyph name="five.mod05" format="1">
  <advance width="0"/>
  <outline>
    <contour>
      <point x="414.0" y="444.0" type="curve" smooth="yes"/>
      <point x="414.0" y="427.0"/>
      <point x="400.0" y="415.0"/>
      <point x="384.0" y="415.0" type="curve" smooth="yes"/>
      <point x="367.0" y="415.0"/>
      <point x="355.0" y="427.0"/>
      <point x="355.0" y="444.0" type="curve" smooth="yes"/>
      <point x="355.0" y="461.0"/>
      <point x="367.0" y="473.0"/>
      <point x="384.0" y="473.0" type="curve" smooth="yes"/>
      <point x="400.0" y="473.0"/>
      <point x="414.0" y="461.0"/>
    </contour>
    <contour>
      <point x="344.0" y="444.0" type="curve" smooth="yes"/>
      <point x="344.0" y="427.0"/>
      <point x="330.0" y="415.0"/>
      <point x="314.0" y="415.0" type="curve" smooth="yes"/>
      <point x="298.0" y="415.0"/>
      <point x="285.0" y="427.0"/>
      <point x="285.0" y="444.0" type="curve" smooth="yes"/>
      <point x="285.0" y="461.0"/>
      <point x="298.0" y="473.0"/>
      <point x="314.0" y="473.0" type="curve" smooth="yes"/>
      <point x="330.0" y="473.0"/>
      <point x="344.0" y="461.0"/>
    </contour>
    <contour>
      <point x="274.0" y="444.0" type="curve" smooth="yes"/>
      <point x="274.0" y="427.0"/>
      <point x="261.0" y="415.0"/>
      <point x="244.0" y="415.0" type="curve" smooth="yes"/>
      <point x="228.0" y="415.0"/>
      <point x="215.0" y="427.0"/>
      <point x="215.0" y="444.0" type="curve" smooth="yes"/>
      <point x="215.0" y="461.0"/>
      <point x="228.0" y="473.0"/>
      <point x="244.0" y="473.0" type="curve" smooth="yes"/>
      <point x="261.0" y="473.0"/>
      <point x="274.0" y="461.0"/>
    </contour>
    <contour>
      <point x="64.0" y="444.0" type="curve" smooth="yes"/>
      <point x="64.0" y="427.0"/>
      <point x="51.0" y="415.0"/>
      <point x="34.0" y="415.0" type="curve" smooth="yes"/>
      <point x="19.0" y="415.0"/>
      <point x="5.0" y="427.0"/>
      <point x="5.0" y="444.0" type="curve" smooth="yes"/>
      <point x="5.0" y="461.0"/>
      <point x="19.0" y="473.0"/>
      <point x="34.0" y="473.0" type="curve" smooth="yes"/>
      <point x="51.0" y="473.0"/>
      <point x="64.0" y="461.0"/>
    </contour>
    <contour>
      <point x="204" y="444" type="curve" smooth="yes"/>
      <point x="204" y="427"/>
      <point x="191.0" y="415.0"/>
      <point x="174.0" y="415.0" type="curve" smooth="yes"/>
      <point x="159.0" y="415.0"/>
      <point x="145" y="427"/>
      <point x="145" y="444" type="curve" smooth="yes"/>
      <point x="145" y="461"/>
      <point x="159" y="473"/>
      <point x="174" y="473" type="curve" smooth="yes"/>
      <point x="191" y="473"/>
      <point x="204" y="461"/>
    </contour>
  </outline>
</glyph>
<glyph name="four.mod06" format="1">
  <advance width="0"/>
  <outline>
    <contour>
      <point x="64.0" y="375.0" type="curve" smooth="yes"/>
      <point x="64.0" y="359.0"/>
      <point x="51.0" y="346.0"/>
      <point x="34.0" y="346.0" type="curve" smooth="yes"/>
      <point x="19.0" y="346.0"/>
      <point x="5.0" y="359.0"/>
      <point x="5.0" y="375.0" type="curve" smooth="yes"/>
      <point x="5.0" y="392.0"/>
      <point x="19.0" y="404.0"/>
      <point x="34.0" y="404.0" type="curve" smooth="yes"/>
      <point x="51.0" y="404.0"/>
      <point x="64.0" y="392.0"/>
    </contour>
    <contour>
      <point x="414.0" y="375.0" type="curve" smooth="yes"/>
      <point x="414.0" y="359.0"/>
      <point x="400.0" y="346.0"/>
      <point x="384.0" y="346.0" type="curve" smooth="yes"/>
      <point x="367.0" y="346.0"/>
      <point x="355.0" y="359.0"/>
      <point x="355.0" y="375.0" type="curve" smooth="yes"/>
      <point x="355.0" y="392.0"/>
      <point x="367.0" y="404.0"/>
      <point x="384.0" y="404.0" type="curve" smooth="yes"/>
      <point x="400.0" y="404.0"/>
      <point x="414.0" y="392.0"/>
    </contour>
  </outline>
</glyph>
<glyph name="four.mod09" format="1">
  <advance width="0"/>
  <outline>
    <contour>
      <point x="414.0" y="168.0" type="curve" smooth="yes"/>
      <point x="414.0" y="152.0"/>
      <point x="400.0" y="138.0"/>
      <point x="384.0" y="138.0" type="curve" smooth="yes"/>
      <point x="367.0" y="138.0"/>
      <point x="355.0" y="152.0"/>
      <point x="355.0" y="168.0" type="curve" smooth="yes"/>
      <point x="355.0" y="184.0"/>
      <point x="367.0" y="197.0"/>
      <point x="384.0" y="197.0" type="curve" smooth="yes"/>
      <point x="400.0" y="197.0"/>
      <point x="414.0" y="184.0"/>
    </contour>
  </outline>
</glyph>
<glyph name="four.mod11" format="1">
  <advance width="560"/>
  <outline>
    <contour>
      <point x="414.0" y="29.0" type="curve" smooth="yes"/>
      <point x="414.0" y="14.0"/>
      <point x="400.0" y="0.0"/>
      <point x="384.0" y="0.0" type="curve" smooth="yes"/>
      <point x="367.0" y="0.0"/>
      <point x="355.0" y="14.0"/>
      <point x="355.0" y="29.0" type="curve" smooth="yes"/>
      <point x="355.0" y="46.0"/>
      <point x="367.0" y="58.0"/>
      <point x="384.0" y="58.0" type="curve" smooth="yes"/>
      <point x="400.0" y="58.0"/>
      <point x="414.0" y="46.0"/>
    </contour>
  </outline>
</glyph>
<glyph name="nine.mod08" format="1">
  <advance width="0"/>
  <outline>
    <contour>
      <point x="455.0" y="266.0" type="curve" smooth="yes"/>
      <point x="470.0" y="266.0"/>
      <point x="484.0" y="253.0"/>
      <point x="484.0" y="237.0" type="curve" smooth="yes"/>
      <point x="484.0" y="221.0"/>
      <point x="470.0" y="208.0"/>
      <point x="455.0" y="208.0" type="curve" smooth="yes"/>
      <point x="438.0" y="208.0"/>
      <point x="425.0" y="221.0"/>
      <point x="425.0" y="237.0" type="curve" smooth="yes"/>
      <point x="425.0" y="253.0"/>
      <point x="438.0" y="266.0"/>
    </contour>
  </outline>
</glyph>
<glyph name="nine.mod09" format="1">
  <advance width="0"/>
  <outline>
    <contour>
      <point x="455.0" y="197.0" type="curve" smooth="yes"/>
      <point x="470.0" y="197.0"/>
      <point x="484.0" y="184.0"/>
      <point x="484.0" y="168.0" type="curve" smooth="yes"/>
      <point x="484.0" y="152.0"/>
      <point x="470.0" y="139.0"/>
      <point x="455.0" y="139.0" type="curve" smooth="yes"/>
      <point x="438.0" y="139.0"/>
      <point x="425.0" y="152.0"/>
      <point x="425.0" y="168.0" type="curve" smooth="yes"/>
      <point x="425.0" y="184.0"/>
      <point x="438.0" y="197.0"/>
    </contour>
  </outline>
</glyph>
<glyph name="seven.mod09" format="1">
  <advance width="0"/>
  <outline>
    <contour>
      <point x="203.0" y="168.0" type="curve" smooth="yes"/>
      <point x="203.0" y="152.0"/>
      <point x="190.0" y="138.0"/>
      <point x="173.0" y="138.0" type="curve" smooth="yes"/>
      <point x="158.0" y="138.0"/>
      <point x="144.0" y="152.0"/>
      <point x="144.0" y="168.0" type="curve" smooth="yes"/>
      <point x="144.0" y="184.0"/>
      <point x="158.0" y="197.0"/>
      <point x="173.0" y="197.0" type="curve" smooth="yes"/>
      <point x="190.0" y="197.0"/>
      <point x="203.0" y="184.0"/>
    </contour>
  </outline>
</glyph>
<glyph name="seven.mod11" format="1">
  <advance width="560"/>
  <outline>
    <contour>
      <point x="203.0" y="29.0" type="curve" smooth="yes"/>
      <point x="203.0" y="14.0"/>
      <point x="190.0" y="0.0"/>
      <point x="173.0" y="0.0" type="curve" smooth="yes"/>
      <point x="158.0" y="0.0"/>
      <point x="144.0" y="14.0"/>
      <point x="144.0" y="29.0" type="curve" smooth="yes"/>
      <point x="144.0" y="46.0"/>
      <point x="158.0" y="58.0"/>
      <point x="173.0" y="58.0" type="curve" smooth="yes"/>
      <point x="190.0" y="58.0"/>
      <point x="203.0" y="46.0"/>
    </contour>
  </outline>
</glyph>
<glyph name="three.mod05" format="1">
  <advance width="0"/>
  <outline>
    <contour>
      <point x="484.0" y="444.0" type="curve" smooth="yes"/>
      <point x="484.0" y="427.0"/>
      <point x="470.0" y="415.0"/>
      <point x="454.0" y="415.0" type="curve" smooth="yes"/>
      <point x="437.0" y="415.0"/>
      <point x="425.0" y="427.0"/>
      <point x="425.0" y="444.0" type="curve" smooth="yes"/>
      <point x="425.0" y="461.0"/>
      <point x="437.0" y="473.0"/>
      <point x="454.0" y="473.0" type="curve" smooth="yes"/>
      <point x="470.0" y="473.0"/>
      <point x="484.0" y="461.0"/>
    </contour>
  </outline>
</glyph>
<glyph name="two.mod05" format="1">
  <advance width="0"/>
  <outline>
    <contour>
      <point x="344.0" y="444.0" type="curve" smooth="yes"/>
      <point x="344.0" y="427.0"/>
      <point x="330.0" y="415.0"/>
      <point x="314.0" y="415.0" type="curve" smooth="yes"/>
      <point x="298.0" y="415.0"/>
      <point x="285.0" y="427.0"/>
      <point x="285.0" y="444.0" type="curve" smooth="yes"/>
      <point x="285.0" y="461.0"/>
      <point x="298.0" y="473.0"/>
      <point x="314.0" y="473.0" type="curve" smooth="yes"/>
      <point x="330.0" y="473.0"/>
      <point x="344.0" y="461.0"/>
    </contour>
  </outline>
</glyph>
<glyph name="two.mod10" format="1">
  <advance width="0"/>
  <outline>
    <contour>
      <point x="64.0" y="98.0" type="curve" smooth="yes"/>
      <point x="64.0" y="83.0"/>
      <point x="51.0" y="69.0"/>
      <point x="34.0" y="69.0" type="curve" smooth="yes"/>
      <point x="19.0" y="69.0"/>
      <point x="5.0" y="83.0"/>
      <point x="5.0" y="98.0" type="curve" smooth="yes"/>
      <point x="5.0" y="115.0"/>
      <point x="19.0" y="128.0"/>
      <point x="34.0" y="128.0" type="curve" smooth="yes"/>
      <point x="51.0" y="128.0"/>
      <point x="64.0" y="115.0"/>
    </contour>
    <contour>
      <point x="484" y="98" type="curve" smooth="yes"/>
      <point x="484" y="83"/>
      <point x="470" y="69"/>
      <point x="454" y="69" type="curve" smooth="yes"/>
      <point x="437" y="69"/>
      <point x="425" y="83"/>
      <point x="425" y="98" type="curve" smooth="yes"/>
      <point x="425" y="115"/>
      <point x="437" y="128"/>
      <point x="454" y="128" type="curve" smooth="yes"/>
      <point x="470" y="128"/>
      <point x="484" y="115"/>
    </contour>
  </outline>
</glyph>
